<svg width="200" height="47" viewBox="0 0 200 47" fill="none" xmlns="http://www.w3.org/2000/svg">
<path d="M49.9082 34.8055V3.87765H68.1067V7.75517H53.6766V17.2643H66.6361V21.1419H53.6766V30.8357H69.1177V34.7132H49.9082V34.8055Z" fill="#131F3F"/>
<path d="M88.2354 34.8053L81.9854 26.5886L75.7354 34.8053H71.3236L79.8714 23.819L70.8641 12.4634H75.8273L81.9854 20.957L88.2354 12.4634H93.1067L84.5589 23.819L92.6472 34.8053H88.2354Z" fill="#131F3F"/>
<path d="M98.7133 31.4822V46.7153H94.9449V23.9118C94.9449 18.0955 99.3566 11.9099 106.25 11.9099C113.235 11.9099 118.474 16.3413 118.474 23.6348C118.474 30.7436 113.143 35.6367 107.077 35.6367C104.136 35.6367 100.184 34.3442 98.7133 31.4822ZM114.522 23.6348C114.522 18.6494 111.305 15.6951 105.607 15.9721C102.849 16.0644 98.6214 18.0955 98.989 25.2043C99.0809 27.5123 101.471 31.8515 106.71 31.8515C111.213 31.8515 114.522 29.2664 114.522 23.6348Z" fill="#131F3F"/>
<path d="M121.691 12.4634H125.46V14.8638C127.298 12.7404 130.147 12.0018 133.18 12.0018V16.064C132.721 15.9716 128.217 15.4177 125.46 21.3263V34.8977H121.691V12.4634Z" fill="#131F3F"/>
<path d="M134.191 23.6348C134.191 17.1722 138.787 11.9099 145.129 11.9099C153.033 11.9099 155.974 17.1722 155.974 23.9118V25.7582H138.327C138.603 30.005 142.371 32.2207 145.864 32.1284C148.438 32.0361 150.184 31.2975 152.022 29.4511L154.504 32.0361C152.206 34.2518 149.265 35.729 145.68 35.729C138.971 35.6367 134.191 30.6513 134.191 23.6348ZM144.853 15.6951C141.268 15.6951 138.511 18.834 138.327 22.25H152.022C152.022 18.9264 149.632 15.6951 144.853 15.6951Z" fill="#131F3F"/>
<path d="M157.904 31.6667L160.662 29.174C160.57 29.174 162.041 30.6512 162.224 30.7435C162.868 31.2974 163.511 31.6667 164.338 31.8514C166.728 32.4976 171.048 32.313 171.416 28.9894C171.599 27.1429 170.221 26.1274 168.658 25.4811C166.636 24.7425 164.43 24.4656 162.408 23.5424C160.11 22.5268 158.64 20.7727 158.64 18.1877C158.64 11.4482 168.199 10.3403 172.518 13.4793C172.702 13.6639 174.816 15.6027 174.724 15.6027L171.967 17.8184C170.588 16.1566 169.302 15.3257 166.36 15.3257C164.89 15.3257 162.868 15.972 162.5 17.5414C161.949 19.7572 164.43 20.5881 166.085 21.0497C168.291 21.6036 170.68 21.9729 172.61 23.1731C175.276 24.8349 175.919 28.4354 174.908 31.2051C173.805 34.2517 170.496 35.4519 167.555 35.5442C164.063 35.7289 161.029 34.621 158.548 32.1283C158.364 32.1283 157.904 31.6667 157.904 31.6667Z" fill="#131F3F"/>
<path d="M177.298 31.6667L180.055 29.174C179.963 29.174 181.434 30.6512 181.618 30.7435C182.261 31.2974 182.904 31.6667 183.732 31.8514C186.121 32.4976 190.441 32.313 190.809 28.9894C190.993 27.1429 189.614 26.1274 188.051 25.4811C186.029 24.7425 183.824 24.4656 181.801 23.5424C179.504 22.5268 178.033 20.7727 178.033 18.1877C178.033 11.4482 187.592 10.3403 191.912 13.4793C192.096 13.6639 194.21 15.6027 194.118 15.6027L191.36 17.8184C189.982 16.1566 188.695 15.3257 185.754 15.3257C184.283 15.3257 182.261 15.972 181.893 17.5414C181.342 19.7572 183.824 20.5881 185.478 21.0497C187.684 21.6036 190.074 21.9729 192.004 23.1731C194.669 24.8349 195.313 28.4354 194.301 31.2051C193.199 34.2517 189.89 35.4519 186.949 35.5442C183.456 35.7289 180.423 34.621 177.941 32.1283C177.757 32.1283 177.298 31.6667 177.298 31.6667Z" fill="#131F3F"/>
<path d="M195.221 12.4638V10.0634H194.393V9.60179H196.599V10.0634H195.772V12.4638H195.221Z" fill="#131F3F"/>
<path d="M199.357 12.4638V10.248L198.529 12.4638H198.346L197.518 10.248V12.4638H197.059V9.6018H197.794L198.529 11.5406L199.265 9.6018H200V12.4638H199.357Z" fill="#131F3F"/>
<path d="M24.3566 34.8055L21.5993 27.4198H6.70956L3.95221 34.8055H0L11.9485 3.87765H16.2684L28.125 34.8055H24.3566ZM13.9706 8.30911L8.36398 23.6346H20.0368L13.9706 8.30911Z" fill="#131F3F"/>
<path d="M30.6067 34.8055V3.87765H34.467V34.8055H30.6067Z" fill="#131F3F"/>
<path d="M40.2574 34.8053V12.925H44.1177V34.8053H40.2574Z" fill="#131F3F"/>
<path d="M47.7941 5.81628C47.7941 5.72396 47.7941 5.72396 47.7941 5.63164C47.7941 5.53932 47.7941 5.53932 47.7941 5.447C44.8529 5.35468 42.4632 2.95431 42.3713 0C42.2794 0 42.1875 0 42.0956 0C42.0037 0 41.9118 0 41.8199 0C41.7279 2.95431 39.3382 5.35468 36.3971 5.447C36.3971 5.53932 36.3971 5.53932 36.3971 5.63164C36.3971 5.72396 36.3971 5.72396 36.3971 5.81628C39.3382 5.9086 41.7279 8.30899 41.8199 11.2633C41.9118 11.2633 42.0037 11.2633 42.0956 11.2633C42.1875 11.2633 42.2794 11.2633 42.3713 11.2633C42.4632 8.30899 44.8529 5.9086 47.7941 5.81628Z" fill="#131F3F"/>
</svg>
