<svg width="172" height="42" viewBox="0 0 172 42" fill="none" xmlns="http://www.w3.org/2000/svg">
<path d="M10.0558 9.22202H0V0.0568848H31.1499V9.22202H21.0822L21.087 36.0807H10.0629L10.0558 9.22202Z" fill="#131F3F"/>
<path d="M40.3231 24.3096C39.1122 24.9059 37.7491 25.2504 36.3931 25.5449C34.1735 26.0367 33.0126 26.5807 33.0055 28.3387C32.9983 29.5478 34.2996 30.7594 36.11 30.7713C38.3747 30.7832 40.1423 29.4386 40.3112 26.7232L40.3231 24.3096ZM49.8531 30.2487C49.8389 32.2085 49.9269 34.4202 51.0236 36.0855L40.8584 36.0262C40.6109 35.3206 40.4658 34.2634 40.5229 33.5626H40.4206C38.2939 35.962 35.2203 36.6462 31.9968 36.6296C26.9653 36.5987 22.8022 34.1637 22.8331 28.6855C22.8831 20.4421 32.5463 20.8008 37.6325 19.8767C38.9933 19.632 40.354 19.2377 40.3612 17.5795C40.3731 15.8192 38.7173 15.154 37.1068 15.1469C34.0379 15.1326 33.4218 16.6839 33.3671 17.7885L24.1058 17.7363C24.4484 10.4004 31.3997 9.23394 37.5921 9.26958C50.072 9.34322 49.9435 14.5197 49.9102 19.5441L49.8531 30.2487Z" fill="#131F3F"/>
<path d="M65.214 16.6673C61.6408 16.646 60.8177 20.0098 60.7987 23.072C60.7796 26.1864 61.5671 29.5622 65.1379 29.5836C68.7134 29.6026 69.5365 26.2411 69.5556 23.1219C69.5746 20.0597 68.7872 16.684 65.214 16.6673ZM51.321 0H61.284L61.2126 12.9257H61.3125C62.835 10.7235 65.509 9.4312 68.4803 9.44783C77.2348 9.50009 79.5566 16.95 79.521 23.0839C79.4829 29.6168 75.8669 36.8815 68.4708 36.8411C63.5892 36.8102 62.0904 34.943 60.8415 33.2753H60.7416L60.7225 36.0809H51.321V0Z" fill="#131F3F"/>
<path d="M93.5044 7.30033C89.729 7.27657 89.2033 10.9445 89.1866 13.7074C89.1723 16.4702 89.6529 20.1952 93.4259 20.2166C97.1989 20.2379 97.727 16.5225 97.7437 13.7549C97.7603 10.992 97.2774 7.32171 93.5044 7.30033ZM93.3854 27.4527C83.5699 27.3957 79.1784 20.8865 79.2236 13.6504C79.2664 6.41185 83.7293 0.00718148 93.5448 0.0665719C103.36 0.121211 107.752 6.57814 107.709 13.8166C107.664 21.0504 103.201 27.5097 93.3854 27.4527Z" fill="#131F3F"/>
<path d="M118.233 7.29779C114.46 7.27403 113.935 10.942 113.92 13.7072C113.901 16.47 114.384 20.1926 118.16 20.214C121.93 20.2378 122.458 16.5199 122.475 13.7547C122.489 10.9919 122.006 7.31917 118.233 7.29779ZM118.115 27.4525C108.301 27.3931 103.91 20.8839 103.955 13.6478C103.996 6.41168 108.461 0.00464213 118.274 0.0616569C128.087 0.118672 132.479 6.5756 132.438 13.8117C132.395 21.0526 127.93 27.5072 118.115 27.4525Z" fill="#131F3F"/>
<path d="M133.513 0.064209H143.267V36.0809H133.513V0.064209Z" fill="#131F3F"/>
<path d="M161.428 24.2243C160.217 24.8182 158.854 25.1627 157.498 25.4549C155.276 25.9466 154.12 26.493 154.108 28.251C154.101 29.4578 155.402 30.6694 157.212 30.6812C159.48 30.6931 161.247 29.3485 161.414 26.6332L161.428 24.2243ZM171.02 30.1562C171.01 32.1161 170.901 34.4157 172 36.081H161.985C161.74 35.3755 161.571 34.1734 161.628 33.4726L161.525 33.4702C159.399 35.8696 156.328 36.5561 153.104 36.5371C148.07 36.5039 143.907 34.0689 143.94 28.5907C143.99 20.3473 153.649 20.7084 158.737 19.7843C160.098 19.5396 161.459 19.1452 161.468 17.4871C161.48 15.7267 159.825 15.0639 158.212 15.0544C155.14 15.0378 154.529 16.5914 154.474 17.6961L145.208 17.6462C145.553 10.3103 152.507 9.14151 158.697 9.1819C171.177 9.25079 171.048 14.4296 171.017 19.4541V30.1562H171.02Z" fill="#131F3F"/>
<path d="M82.9609 27.4551C90.0359 30.6123 97.3773 32.0139 105.378 32.059C113.782 32.1089 120.156 30.5244 128.223 27.4551L128.175 36.1498C120.955 39.7251 113.124 41.6541 105.321 41.609C96.8159 41.5591 90.6877 39.8154 82.9086 36.1498L82.9609 27.4551Z" fill="#131F3F"/>
</svg>
