<svg width="251" height="79" viewBox="0 0 251 79" fill="none" xmlns="http://www.w3.org/2000/svg">
<g clip-path="url(#clip0_729_164)">
<path d="M86.8086 15.4485H93.0748V46.0285H103.877V52.0647H86.8348L86.8086 15.4485Z" fill="#131F3F"/>
<path d="M118.388 24.6224C121.708 24.5803 124.855 26.1151 126.896 28.7707V25.1675H132.743V52.1178H126.896V48.5147C124.855 51.1703 121.708 52.705 118.388 52.6629C111.1 52.6629 105.568 46.3475 105.568 38.636C105.568 30.9246 111.1 24.6224 118.388 24.6224ZM119.45 30.0205C114.718 30.0205 111.585 33.7964 111.585 38.636C111.585 43.4757 114.77 47.2649 119.45 47.2649C124.13 47.2649 127.316 43.4889 127.316 38.636C127.316 33.7831 124.183 30.0205 119.45 30.0205Z" fill="#131F3F"/>
<path d="M137.292 47.4377L151.227 30.5522H137.501V25.1675H158.778V29.914L144.895 46.733H159.092V52.1178H137.292V47.4377Z" fill="#131F3F"/>
<path d="M173.958 24.6224C177.277 24.5803 180.425 26.1151 182.466 28.7707V25.1675H188.312V52.1178H182.466V48.5147C180.425 51.1703 177.277 52.705 173.958 52.6629C166.669 52.6629 161.15 46.3475 161.15 38.636C161.15 30.9246 166.669 24.6224 173.958 24.6224ZM175.02 30.0205C170.287 30.0205 167.154 33.7964 167.154 38.636C167.154 43.4757 170.34 47.2649 175.02 47.2649C179.7 47.2649 182.885 43.4889 182.885 38.636C182.885 33.7831 179.752 30.0205 175.02 30.0205Z" fill="#131F3F"/>
<path d="M205.014 24.6224C208.33 24.5783 211.474 26.1139 213.508 28.7707V13.2812H219.355V52.1178H213.508V48.5147C211.474 51.1715 208.33 52.7071 205.014 52.663C197.725 52.663 192.193 46.3475 192.193 38.636C192.193 30.9246 197.725 24.6224 205.014 24.6224ZM206.075 30.0205C201.343 30.0205 198.21 33.7964 198.21 38.636C198.21 43.4757 201.409 47.2649 206.075 47.2649C210.742 47.2649 213.941 43.489 213.941 38.636C213.941 33.7831 210.808 30.0205 206.075 30.0205Z" fill="#131F3F"/>
<path d="M236.056 24.6223C239.372 24.5781 242.517 26.1138 244.551 28.7705V25.1674H250.384V52.1177H244.524V48.5145C242.49 51.1713 239.346 52.7069 236.03 52.6628C228.741 52.6628 223.209 46.3474 223.209 38.6359C223.209 30.9244 228.767 24.6223 236.056 24.6223ZM237.118 30.0203C232.385 30.0203 229.252 33.7963 229.252 38.6359C229.252 43.4755 232.451 47.2647 237.118 47.2647C241.785 47.2647 244.983 43.4888 244.983 38.6359C244.983 33.783 241.85 30.0203 237.118 30.0203Z" fill="#131F3F"/>
<path d="M32.3795 62.2624C31.9202 62.2656 31.4681 62.1464 31.0686 61.9167C27.6471 59.909 2.30717 43.7947 1.3502 43.3028C0.621919 42.958 0.124614 42.2519 0.0386673 41.4414V18.8388C0.0204433 17.9951 0.431684 17.2011 1.12734 16.7381L1.31087 16.6317C3.76228 15.0894 11.9686 10.0105 13.2664 9.27921C13.5642 9.09996 13.9033 9.00365 14.2496 9C14.5742 9.00372 14.8932 9.08576 15.1803 9.23932C15.1803 9.23932 26.6639 16.8311 28.4205 17.5092C29.6531 18.0835 30.9971 18.3698 32.3533 18.3468C33.8901 18.3794 35.4086 18.0036 36.7579 17.2566C38.4752 16.3392 49.4476 9.27921 49.5655 9.27921C49.8422 9.10975 50.16 9.02224 50.4832 9.02659C50.8297 9.02831 51.1693 9.12477 51.4664 9.3058C52.9608 10.1434 63.1335 16.4589 63.5661 16.7381C64.2815 17.1759 64.7153 17.9648 64.7067 18.8122V41.4148C64.6263 42.2273 64.1274 42.9357 63.3957 43.2762C62.4387 43.808 37.1774 59.9223 33.6904 61.8901C33.2934 62.1291 32.8412 62.2575 32.3795 62.2624Z" fill="#38466D"/>
<path d="M32.2485 62.2625H32.3796C32.8389 62.2657 33.291 62.1465 33.6905 61.9168C37.112 59.9091 62.4388 43.7948 63.3958 43.3029C64.1276 42.9624 64.6265 42.254 64.7069 41.4415V18.8389C64.7109 18.4562 64.6255 18.078 64.4576 17.7354L32.2485 35.6712V62.2625Z" fill="#131F3F"/>
<path d="M0 41.4014C0.0980368 42.2267 0.622739 42.9363 1.37646 43.2628C2.33342 43.7946 27.6734 59.9089 31.0948 61.8767C31.4478 62.0811 31.8427 62.1994 32.2484 62.2224V35.6311L0.1442 17.9612C0.0521454 18.2307 0.0034563 18.5136 0 18.7988V41.4014Z" fill="#131F3F"/>
</g>
<defs>
<clipPath id="clip0_729_164">
<rect width="251" height="54" fill="white" transform="translate(0 9)"/>
</clipPath>
</defs>
</svg>
