<svg width="109" height="34" viewBox="0 0 109 34" fill="none" xmlns="http://www.w3.org/2000/svg">
<path d="M37.8479 16.9004C37.8479 20.9309 37.8479 24.9614 37.8479 28.9843C37.8479 30.1972 37.7411 31.3875 36.963 32.4046C35.8798 33.8209 34.4 34.1825 32.7371 33.851C31.0207 33.512 29.8155 32.0882 29.7011 30.0315C29.5638 27.5755 29.6324 25.1045 29.6248 22.641C29.6172 19.6879 29.6248 19.6879 26.7109 19.6879C24.2165 19.6879 21.7145 19.7331 19.2201 19.6653C18.1674 19.6351 17.8776 19.9666 17.9005 20.9836C17.9615 23.8087 17.931 26.6338 17.9157 29.4589C17.9081 31.1992 17.3055 32.6607 15.6883 33.512C13.3465 34.74 10.547 33.512 9.92911 30.9732C9.73078 30.1671 9.70027 29.3083 9.70027 28.472C9.68501 20.7727 9.69264 13.0809 9.69264 5.38158C9.69264 4.83916 9.7079 4.29674 9.78418 3.76186C10.1122 1.20044 11.5463 -0.0652074 13.9949 0.00259493C16.2909 0.0703972 17.8165 1.62985 17.9157 4.11593C17.9844 5.97673 17.931 7.84506 17.931 9.70586C17.931 12.6364 17.931 12.6364 20.8373 12.6364C23.3316 12.6364 25.8337 12.5912 28.328 12.659C29.3502 12.6892 29.6858 12.4029 29.6553 11.3708C29.579 9.02784 29.5714 6.67736 29.6553 4.33441C29.7469 1.64492 31.2267 0.0703972 33.5456 0.00259493C36.2155 -0.072741 37.7868 1.49425 37.8555 4.44741C37.9165 7.33278 37.8708 10.2181 37.8708 13.1035C37.8479 14.3767 37.8479 15.6348 37.8479 16.9004Z" fill="#131F3F"/>
<path d="M72.1971 10.4592C74.8364 7.68686 78.6886 8.43268 80.9236 9.74353C82.6933 10.7832 83.3265 12.5008 82.6247 14.1883C81.9153 15.8834 80.2829 16.5313 78.2385 15.9361C74.7449 14.9116 73.6541 15.6273 73.0591 19.2283C72.5632 22.2794 72.815 25.3381 72.7463 28.3967C72.7311 29.1199 72.7768 29.8507 72.67 30.5513C72.3268 32.7436 70.8088 34.0017 68.6729 33.9339C66.6744 33.8736 65.2632 32.5402 65.0954 30.3404C64.9657 28.6679 65.0115 26.9804 65.0115 25.3004C65.0115 21.2172 65.0038 17.134 65.0496 13.0432C65.0648 11.2201 65.4844 9.54012 67.4448 8.78676C69.123 8.16147 70.6257 8.71896 72.1971 10.4592Z" fill="#131F3F"/>
<path d="M0.00498132 21.2624C0.00498132 18.4373 -0.0102744 15.6122 0.0126099 12.7871C0.0354941 10.1805 1.43143 8.64362 3.74274 8.61349C6.1227 8.58335 7.65594 10.1729 7.6712 12.8248C7.70171 18.4147 7.70934 23.9971 7.6712 29.587C7.65594 32.397 6.16084 33.9715 3.69697 33.9414C1.35515 33.9113 0.0202375 32.3292 0.00498132 29.5493C-0.00264676 26.792 0.00498132 24.0272 0.00498132 21.2624Z" fill="#131F3F"/>
<path d="M3.78851 0.311466C6.04642 0.281332 7.62543 1.74285 7.67883 3.89745C7.73222 6.1726 6.16847 7.76219 3.87242 7.77725C1.57637 7.79985 0.0431235 6.37601 0.00498316 4.19127C-0.0407853 1.88599 1.4772 0.341601 3.78851 0.311466Z" fill="#131F3F"/>
<path fill-rule="evenodd" clip-rule="evenodd" d="M100.703 8.83949C97.6062 8.22174 94.6542 8.65115 91.7479 10.851C91.7479 10.0475 91.754 9.27565 91.7599 8.52615C91.7739 6.76678 91.7869 5.13063 91.7173 3.49817C91.6411 1.3963 90.2604 0.0854543 88.2923 0.0176547C86.1565 -0.0576812 84.7453 1.12509 84.4631 3.27216C84.3791 3.92759 84.3791 4.59054 84.3791 5.2535C84.3715 13.1336 84.3715 21.0138 84.3868 28.8939C84.3868 29.7226 84.4402 30.5814 84.6232 31.3875C84.936 32.736 85.859 33.6099 87.2244 33.8736C88.6966 34.1599 90.1917 33.8661 90.9164 32.5326C91.5162 31.4277 91.9315 31.7224 92.5251 32.1438C92.6034 32.1994 92.6847 32.2571 92.77 32.3142C96.7443 34.966 102.168 34.4386 105.456 30.9958C108.942 27.357 109.399 22.8218 108.751 18.1736C108.019 12.9227 105.158 9.72845 100.703 8.83949ZM93.5786 16.3655C92.3428 17.8346 92.0759 19.5975 92.053 21.8877C92.0743 22.0117 92.0944 22.1721 92.1176 22.3574C92.1776 22.8362 92.2584 23.4813 92.4344 24.095C93.0446 26.2722 94.5397 27.4625 96.5688 27.5077C98.6055 27.5529 100.146 26.4154 100.81 24.2457C101.542 21.8726 101.481 19.4769 100.436 17.2093C99.1013 14.3089 95.6458 13.9096 93.5786 16.3655Z" fill="#131F3F"/>
<path fill-rule="evenodd" clip-rule="evenodd" d="M52.1557 23.6724C52.6975 23.6691 53.2577 23.6656 53.8439 23.6656C54.4495 23.6457 55.0873 23.657 55.746 23.6685C57.0869 23.6921 58.5142 23.7172 59.9312 23.4848C62.2806 23.1006 63.3485 21.9404 63.4248 19.605C63.524 16.7196 62.6162 14.1507 60.5795 12.0563C56.9104 8.27448 52.326 7.88273 47.5889 9.17851C43.1418 10.3839 40.6779 13.6158 39.8007 18.0531C38.5954 24.1327 40.5406 29.5041 44.942 32.1861C47.9398 34.0168 51.2733 34.2578 54.6296 33.7983C58.0013 33.3387 60.9457 31.9676 62.6162 28.796C63.4706 27.1762 63.196 25.5716 62.0518 24.7128C60.8465 23.8087 59.1073 23.9971 57.7419 25.2025C57.5447 25.3772 57.3502 25.5555 57.1557 25.7338C56.3272 26.4933 55.4982 27.2532 54.4542 27.7413C51.6318 29.0597 48.6035 27.7639 47.6728 24.9237C47.3525 23.9368 47.5966 23.6204 48.6263 23.6505C49.7682 23.6872 50.9138 23.6801 52.1557 23.6724ZM50.7818 18.4882C50.9868 18.4853 51.1914 18.4825 51.3953 18.4825C51.7226 18.4825 52.0498 18.4784 52.3771 18.4744C53.1407 18.4649 53.9042 18.4554 54.6678 18.4976C55.6442 18.5578 55.8349 18.1887 55.5374 17.3525C54.9958 15.8231 53.9889 14.776 52.3336 14.5198C50.6096 14.2486 49.2213 14.8588 48.2983 16.3279C48.2526 16.4008 48.2037 16.4756 48.1539 16.5519C47.7965 17.0989 47.3878 17.7247 47.6957 18.2866C47.876 18.6218 48.3439 18.5674 48.8098 18.5132C49.014 18.4895 49.2178 18.4658 49.3968 18.475C49.8565 18.5011 50.3199 18.4946 50.7818 18.4882Z" fill="#131F3F"/>
</svg>
