<svg width="161" height="70" viewBox="0 0 161 70" fill="none" xmlns="http://www.w3.org/2000/svg">
<path d="M72.6082 30.5087C77.5129 18.3129 68.3397 15 62.368 15H42.5852C44.227 16.1388 43.9602 17.6504 43.6318 18.5821L32.0988 55.7492C31.6473 57.2193 29.9235 58.7722 29 59H45.0068C44.1244 58.8344 42.8725 57.5713 43.324 55.8527L47.5104 42.4146C47.5309 42.4146 66.7801 45.0442 72.6082 30.5087ZM57.0529 18.4165C59.1461 18.4165 64.9537 18.7064 61.1983 29.784C57.2786 41.4207 48.5775 39.0188 48.5775 39.0188L54.9802 18.4165H57.0529Z" fill="#131F3F"/>
<path d="M85.8824 59.37H97C93.4424 58.2416 88.1906 54.9192 86.0941 52.5579C87.7882 50.74 89.8847 48.4414 90.2659 43.7816H84.5059C84.5059 43.7816 85.6071 44.4085 85.6071 45.7458C85.6071 46.9787 85.0988 48.6922 84.1247 49.8832C82.4306 47.4175 80.6306 44.5966 79.9953 40.4592C82.2612 39.3517 85.4377 38.1397 87.9577 35.9665C90.3506 33.8978 90.9012 31.9336 90.9435 30.659V30.4918C90.9435 29.1544 90.4141 27.9007 89.44 26.9604C87.7671 25.3305 85.1412 24.6618 82.3671 25.1633C80.1435 25.5812 78.2588 26.7514 77.3059 27.6081C73.96 30.7216 73.5365 35.8412 73.5365 38.1606C73.5365 38.7248 73.5577 39.1427 73.5788 39.3935C73.3882 39.477 73.0494 39.6024 73.0494 39.6024C70.5929 40.501 64.0494 42.2144 61.72 47.522C61.4235 48.1907 61 49.6534 61 51.346C61 52.8087 61.3176 54.4386 62.2706 55.9222C63.9224 58.4715 66.7176 60.0805 71.2071 59.9969C76.0777 59.9133 80.8847 56.6326 81.7318 56.0267C82.5577 56.7998 84.7388 58.8267 85.8824 59.37ZM85.8824 29.6977C85.3106 33.2709 80.6094 36.886 79.4659 37.3666C79.2541 35.3605 79.36 32.1844 81.0541 29.5933C82.1765 27.8798 83.68 27.1275 84.8871 27.5455C85.8612 27.8798 85.9671 28.7574 85.8824 29.6977ZM79.36 53.6027C78.7035 53.9998 76.12 55.2953 73.7059 55.5252C71.4612 55.7341 67.7341 54.8774 67.7553 50.4474C67.7553 46.6653 71.9271 43.8861 74.1929 42.9249C75.1035 46.5817 77.1576 50.7191 79.36 53.6027Z" fill="#131F3F"/>
<path d="M118.884 18.0386C125.351 16.4562 130.678 21.6041 131.155 21.9628L133 15.9921C130.45 15.2114 111.899 8.81879 98.7786 24.0515C90.7155 33.4189 88.7464 52.618 98.9652 57.7659C109.909 63.2724 121.994 56.9219 122.885 56.4789L127.88 40.2757C128.419 38.3136 129.642 37.0477 131.798 36.2249H114.428C116.957 37.3009 116.77 39.2419 116.584 40.0436L111.588 56.2468C110.925 56.3734 96.9546 59.9178 104.769 35.0434C106.489 29.7057 111.194 19.9163 118.884 18.0386Z" fill="#131F3F"/>
</svg>
