<svg width="185" height="70" viewBox="0 0 185 70" fill="none" xmlns="http://www.w3.org/2000/svg">
<g clip-path="url(#clip0_719_61)">
<path d="M41.3421 25.6836C40.6676 23.31 42.7674 22.4624 44.1832 24.4669C46.4959 27.7418 47.7315 31.0226 48.3802 34.6221C50.6237 47.0681 41.7048 60.3106 29.2991 62.6052C21.0935 64.1234 12.8957 61.6171 7.16861 55.5328C5.76264 54.0391 7.00516 52.238 8.87394 52.9543C27.6946 60.1704 46.3423 44.9164 41.4961 26.2503L41.3421 25.6836ZM96.8185 31.4558C98.8898 31.4558 100.755 31.9304 102.406 32.88C104.059 33.8313 105.359 35.1552 106.298 36.8425C107.235 38.527 107.703 40.4483 107.703 42.5962C107.703 44.7176 107.241 46.6251 106.318 48.3088C105.392 49.9976 104.097 51.3227 102.443 52.2747C100.793 53.2244 98.9143 53.699 96.8185 53.699C94.7234 53.699 92.8395 53.2247 91.1772 52.2758C89.5099 51.3238 88.2083 49.9985 87.2817 48.3088C86.3585 46.6253 85.8972 44.7179 85.8972 42.5962C85.8972 40.4492 86.3583 38.5293 87.2817 36.8458C88.2083 35.1562 89.51 33.8308 91.1773 32.8789C92.8395 31.93 94.7234 31.4558 96.8185 31.4558ZM146.287 31.4558C148.358 31.4558 150.224 31.9304 151.874 32.88C153.527 33.8313 154.827 35.1552 155.766 36.8425C156.703 38.5268 157.171 40.448 157.171 42.5962C157.171 44.7183 156.71 46.6256 155.786 48.3088C154.86 49.9976 153.565 51.3227 151.911 52.2747C150.261 53.2244 148.382 53.699 146.287 53.699C144.191 53.699 142.308 53.2248 140.645 52.2758C138.978 51.3238 137.676 49.9985 136.75 48.3088C135.827 46.6253 135.365 44.7179 135.365 42.5962C135.365 40.4492 135.826 38.5293 136.75 36.8458C137.676 35.1562 138.978 33.8308 140.645 32.8789C142.308 31.93 144.191 31.4558 146.287 31.4558ZM121.555 22.7627C122.253 22.7627 122.855 22.9813 123.333 23.4155C123.826 23.8637 124.082 24.4513 124.082 25.1344C124.082 25.8175 123.826 26.4051 123.333 26.8534C122.908 27.2393 122.385 27.4549 121.784 27.4981L121.555 27.5062C120.333 27.5062 119.381 27.9015 118.656 28.7002C117.978 29.448 117.611 30.4275 117.559 31.6617L117.552 31.9755L117.552 32.3626L120.734 32.3629C121.259 32.3629 121.723 32.4882 122.111 32.7387L122.273 32.8537L122.425 32.984C122.88 33.4093 123.112 33.9818 123.112 34.6591C123.112 35.2888 122.877 35.8358 122.425 36.2584C122.032 36.6264 121.535 36.831 120.955 36.8719L120.734 36.8796L117.552 36.8788L117.552 50.987C117.552 51.5654 117.409 52.0736 117.125 52.4945L116.995 52.6695L116.847 52.8335C116.376 53.3109 115.733 53.5477 114.951 53.5477C114.292 53.5477 113.707 53.3076 113.231 52.8412C112.799 52.4186 112.556 51.8731 112.508 51.2319L112.499 50.987L112.499 36.8788L111.519 36.8796C110.994 36.8796 110.53 36.7543 110.141 36.5038L109.979 36.3888L109.827 36.2584C109.375 35.8358 109.141 35.2888 109.141 34.6591C109.141 33.9818 109.372 33.4093 109.827 32.9841C110.22 32.6161 110.718 32.4115 111.297 32.3706L111.519 32.3629L112.499 32.3626C112.499 30.768 112.765 29.3358 113.299 28.0637L113.467 27.6869L113.635 27.3499C114.4 25.8969 115.478 24.7639 116.861 23.9612C118.238 23.162 119.806 22.7627 121.555 22.7627ZM128.08 22.7627C128.789 22.7627 129.396 23.0031 129.864 23.477C130.28 23.8983 130.514 24.4312 130.561 25.0497L130.569 25.2856V45.9223C130.569 46.7466 130.718 47.4072 131.006 47.9086C131.218 48.275 131.438 48.4543 131.697 48.4934L131.811 48.5017H132.743C133.417 48.5017 133.99 48.7532 134.421 49.2423C134.838 49.715 135.047 50.3188 135.047 51.0248C135.047 51.7834 134.714 52.4249 134.083 52.8955C133.563 53.2837 132.922 53.4971 132.172 53.5397L131.811 53.5477C130.617 53.5477 129.531 53.2138 128.568 52.5498C127.612 51.8903 126.872 50.9665 126.354 49.7905C125.901 48.7645 125.65 47.6302 125.6 46.3917L125.59 45.9223V25.2856C125.59 24.5661 125.828 23.951 126.296 23.4769C126.764 23.003 127.37 22.7627 128.08 22.7627ZM82.8277 31.607C83.5136 31.607 84.0665 31.8071 84.4541 32.2184C84.8314 32.6189 85.0188 33.1532 85.0188 33.7897C85.0188 34.1717 84.9707 34.5314 84.8779 34.8527L79.274 51.8804C79.1069 52.3544 78.8057 52.7536 78.3825 53.0671C77.9524 53.3853 77.4628 53.5477 76.9326 53.5477C76.3822 53.5477 75.8775 53.3882 75.4359 53.0736C75.0414 52.7924 74.7596 52.4389 74.6002 52.0174L74.5394 51.8326L71.4695 40.3163L68.2303 51.8803C68.1099 52.2221 67.917 52.5244 67.6563 52.7835L67.4918 52.9338L67.3113 53.0735C66.8711 53.3875 66.3791 53.5477 65.8519 53.5477C65.3246 53.5477 64.8324 53.3874 64.3923 53.0735C64.0147 52.8041 63.7327 52.4707 63.5513 52.0723L63.469 51.8677L57.9426 35.0722C57.8246 34.6834 57.766 34.268 57.766 33.8275C57.766 32.4194 58.5679 31.607 59.9571 31.607C60.578 31.607 61.1164 31.7989 61.5443 32.1803C61.8959 32.494 62.1775 32.9414 62.3996 33.5262L62.4912 33.7853L65.9016 44.5662L69.1334 33.4975C69.2467 33.1073 69.4246 32.7645 69.6652 32.4744L69.8171 32.3067L69.9838 32.1519C70.4118 31.7877 70.9576 31.607 71.5974 31.607C72.2133 31.607 72.7472 31.7888 73.1738 32.1519C73.5231 32.4492 73.7822 32.8251 73.9525 33.2833L74.0303 33.5193L76.8497 44.6929L80.2904 33.7941C80.6683 32.537 81.4013 31.7866 82.4287 31.6354L82.6248 31.6141L82.8277 31.607ZM182.775 31.607C183.461 31.607 184.014 31.8071 184.401 32.2183C184.779 32.6188 184.966 33.153 184.966 33.7897C184.966 34.1717 184.918 34.5314 184.826 34.8527L179.222 51.8802C179.055 52.3542 178.754 52.7535 178.33 53.0671C177.9 53.3853 177.411 53.5477 176.88 53.5477C176.33 53.5477 175.825 53.3882 175.384 53.0736C174.989 52.7924 174.707 52.4389 174.548 52.0174L174.487 51.8326L171.417 40.3152L168.178 51.8803C168.058 52.2221 167.865 52.5244 167.604 52.7835L167.439 52.9338L167.259 53.0735C166.819 53.3875 166.327 53.5477 165.8 53.5477C165.272 53.5477 164.78 53.3875 164.34 53.0735C163.962 52.8041 163.68 52.4707 163.499 52.0723L163.417 51.8677L157.89 35.0722C157.772 34.6831 157.713 34.2676 157.713 33.8275C157.713 32.4194 158.515 31.607 159.905 31.607C160.526 31.607 161.064 31.7989 161.492 32.1803C161.844 32.494 162.125 32.9414 162.347 33.5262L162.439 33.7853L165.849 44.5662L169.081 33.4975C169.194 33.1073 169.372 32.7645 169.613 32.4744L169.765 32.3067L169.932 32.1519C170.36 31.7877 170.905 31.607 171.545 31.607C172.161 31.607 172.695 31.7887 173.122 32.1519C173.471 32.4492 173.73 32.8251 173.9 33.2833L173.978 33.5193L176.798 44.6929L180.238 33.7941C180.616 32.537 181.349 31.7866 182.376 31.6354L182.572 31.6141L182.775 31.607ZM23.8038 15.2789C24.2246 14.9054 24.9961 14.8354 25.7222 15.0511C32.6602 17.1118 37.2404 23.075 37.5752 29.3442C38.0635 38.486 32.6947 46.6899 23.2884 49.3951C15.6867 51.5816 6.2112 49.789 2.54209 44.5986C-1.44997 38.9512 -0.675517 31.8507 4.40975 27.2707C8.68869 23.4169 14.8329 22.9377 18.9123 24.8436C21.4152 26.013 20.7901 28.671 18.301 28.3617L18.1243 28.3352C10.8987 27.0732 5.90885 31.8617 8.79892 37.0114C10.5802 40.1854 16.1556 40.7048 21.0911 38.2413C26.6761 35.4536 29.5624 29.9759 27.8994 23.1257C27.4608 21.3197 26.2561 19.471 24.5505 17.6852L24.2249 17.3511C23.4212 16.5428 23.2486 15.7716 23.8038 15.2789ZM96.8185 36.1237C95.6602 36.1237 94.6322 36.3965 93.7227 36.9426C92.814 37.488 92.1043 38.2468 91.5858 39.2289C91.0633 40.2186 90.8017 41.3381 90.8017 42.5962C90.8017 43.8537 91.0629 44.9658 91.5845 45.9419C92.1028 46.9124 92.8129 47.666 93.7227 48.2123C94.6322 48.7583 95.6602 49.0311 96.8185 49.0311C97.9768 49.0311 99.0051 48.7582 99.9146 48.2123C100.823 47.6669 101.526 46.9152 102.032 45.947C102.542 44.9695 102.798 43.8555 102.798 42.5962C102.798 41.3359 102.542 40.2146 102.03 39.2239C101.524 38.2439 100.822 37.487 99.9146 36.9425C99.0051 36.3965 97.9768 36.1237 96.8185 36.1237ZM146.287 36.1237C145.128 36.1237 144.1 36.3965 143.191 36.9426C142.282 37.488 141.572 38.2468 141.054 39.2289C140.531 40.2186 140.27 41.3381 140.27 42.5962C140.27 43.8537 140.531 44.9658 141.053 45.9419C141.571 46.9124 142.281 47.666 143.191 48.2123C144.1 48.7583 145.128 49.0311 146.287 49.0311C147.445 49.0311 148.473 48.7582 149.383 48.2123C150.291 47.6669 150.994 46.9152 151.5 45.947C152.01 44.9695 152.266 43.8555 152.266 42.5962C152.266 41.3359 152.01 40.2146 151.498 39.2239C150.992 38.2439 150.29 37.487 149.383 36.9425C148.473 36.3965 147.445 36.1237 146.287 36.1237Z" fill="#131F3F"/>
</g>
<defs>
<clipPath id="clip0_719_61">
<rect width="184.966" height="48.1079" fill="white" transform="translate(0 14.9299)"/>
</clipPath>
</defs>
</svg>
