<svg width="151" height="70" viewBox="0 0 151 70" fill="none" xmlns="http://www.w3.org/2000/svg">
<g clip-path="url(#clip0_719_57)">
<path d="M136.787 22.432H124.443H122.467H118.516V54.3646H124.443V28.4253H136.787C140.879 28.4253 144.191 31.7747 144.191 35.904V54.3646H150.122V35.904C150.122 28.4695 144.147 22.432 136.787 22.432Z" fill="#131F3F"/>
<path d="M102.218 22.432H97.2813C89.9168 22.432 83.9446 28.4695 83.9446 35.904V40.8921C83.9446 48.3336 89.9174 54.364 97.2813 54.364H102.218C109.584 54.364 115.555 48.3331 115.555 40.8921V35.904C115.554 28.4695 109.584 22.432 102.218 22.432ZM109.628 40.8926C109.628 45.029 106.312 48.3806 102.218 48.3806H97.2813C93.1916 48.3806 89.8752 45.029 89.8752 40.8926V35.9045C89.8752 31.7747 93.1916 28.4258 97.2813 28.4258H102.218C106.312 28.4258 109.628 31.7753 109.628 35.9045V40.8926Z" fill="#131F3F"/>
<path d="M80.9829 35.904C80.9829 28.4695 75.0145 22.432 67.6505 22.432H49.3811V69.3383H52.3421C53.9773 69.3383 55.3032 68.003 55.3032 66.3419V28.4253H67.65C71.7435 28.4253 75.0604 31.7747 75.0604 35.904V40.8921C75.0604 45.0284 71.7435 48.38 67.65 48.38H61.7231H58.7621V51.3764C58.7621 53.0287 60.0879 54.364 61.7231 54.364H67.65C75.0139 54.364 80.9824 48.3331 80.9824 40.8921V35.904H80.9829Z" fill="#131F3F"/>
<path d="M52.3424 7.46497H47.8952C46.5872 7.46497 45.4785 8.31897 45.0854 9.51021L45.0789 9.51894L29.5734 46.1384C29.5691 46.1384 29.5583 46.145 29.5583 46.145C28.9988 47.4737 27.6903 48.4096 26.1717 48.4096C24.6548 48.4096 23.3511 47.4825 22.7868 46.1537H22.7825L7.26995 9.57023C6.89247 8.35717 5.76865 7.47206 4.44287 7.47206L4.43207 7.46497H0L17.334 48.4096C17.3448 48.4314 17.3562 48.456 17.3648 48.4849L17.4415 48.6666H17.4502C18.9558 52.0248 22.2856 54.3647 26.1712 54.3647C30.155 54.3647 33.5637 51.9047 35.0061 48.4096H35.0218L52.3424 7.46497Z" fill="#131F3F"/>
</g>
<defs>
<clipPath id="clip0_719_57">
<rect width="150.13" height="62.2085" fill="white" transform="translate(0 7.46497)"/>
</clipPath>
</defs>
</svg>
