<svg width="167" height="70" viewBox="0 0 167 70" fill="none" xmlns="http://www.w3.org/2000/svg">
<g clip-path="url(#clip0_719_60)">
<path fill-rule="evenodd" clip-rule="evenodd" d="M166.354 23.9134V22.3785L165.753 23.9134H165.632L165.019 22.3785V23.9134H164.68V21.8789H165.183L165.714 23.2676L166.233 21.8789H166.729V23.9134H166.354ZM163.677 23.9134H163.299V22.1787H162.738V21.8789H164.238V22.1787H163.677V23.9134ZM146.114 55.6373C136.639 55.6373 129.624 48.9971 129.624 39.1305V38.634C129.624 28.5798 136.7 21.8789 146.176 21.8789C155.589 21.8789 162.664 28.5202 162.664 38.4483V38.9448C162.664 49.0576 155.589 55.6373 146.114 55.6373ZM155.035 38.5715C155.035 31.8706 151.712 27.7745 146.176 27.7745C140.637 27.7745 137.254 31.8091 137.254 38.5119V39.0074C137.254 45.6457 140.514 49.8034 146.176 49.8034C151.712 49.8034 155.035 45.6457 155.035 39.0074V38.5715ZM116.273 38.5715C116.273 31.8706 112.951 27.7745 107.413 27.7745C101.875 27.7745 98.4921 31.8091 98.4921 38.5119V55.6373H90.862V38.634C90.862 28.5798 97.938 21.8789 107.413 21.8789C116.826 21.8789 123.902 28.5202 123.902 38.4483V55.6373H116.273V38.5715ZM77.4995 51.5916C75.5338 53.9833 72.8953 55.5284 68.5895 55.6262H68.2691C58.9578 55.4779 52.1004 48.8851 52.1004 39.1305V38.634C52.1004 28.5798 59.1764 21.8789 68.6514 21.8789C78.0646 21.8789 85.1406 28.5202 85.1406 38.4483V55.6373H77.4995V51.5916ZM68.6514 27.7745C63.1138 27.7745 59.7295 31.8091 59.7295 38.5119V39.0074C59.7295 45.6457 62.99 49.8034 68.6494 49.8034H69.9243C73.667 49.8034 76.609 48.1484 77.4995 45.2289L77.5115 38.5715C77.5115 31.8706 74.1881 27.7745 68.6514 27.7745ZM42.5555 16.1086C39.896 16.1086 37.9273 14.2436 37.9273 11.4745V11.3353C37.9273 8.51465 39.9129 6.63257 42.5724 6.63257C45.215 6.63257 47.2006 8.49649 47.2006 11.2828V11.4241C47.2006 14.2628 45.215 16.1086 42.5555 16.1086ZM16.4765 55.6373H7.61643V67.1781H-0.0126953V21.8789H16.5384C25.9515 21.8789 33.0275 28.5202 33.0275 38.4483V38.9448C33.0275 49.0576 25.9515 55.6373 16.4765 55.6373ZM25.3984 38.5715C25.3984 31.8706 22.075 27.7745 16.5384 27.7745H7.61643V49.8034H16.5384C22.075 49.8034 25.3984 45.6457 25.3984 39.0074V38.5715ZM46.378 55.6373H38.7489V21.8789H46.378V55.6373Z" fill="#131F3F"/>
</g>
<defs>
<clipPath id="clip0_719_60">
<rect width="166.719" height="60.5496" fill="white" transform="translate(0 6.6355)"/>
</clipPath>
</defs>
</svg>
