<svg width="221" height="58" viewBox="0 0 221 58" fill="none" xmlns="http://www.w3.org/2000/svg">
<path d="M40.402 0H30.1322V13.8288C30.035 13.2322 30.035 12.7345 29.8412 12.1374C29.3567 9.74984 28.3878 7.56088 27.2255 5.77039C26.0626 3.88025 24.5124 2.48733 22.6717 1.49274C20.8309 0.497681 18.3119 0 15.3082 0H0V40.0921H15.3082C17.1492 40.0921 19.1838 39.7939 21.5093 39.0975C23.1562 38.6001 24.7065 37.5057 26.1596 35.9144C27.6131 34.2233 28.6789 32.3327 29.5508 29.9455C29.8414 29.0498 30.0352 28.0549 30.2288 26.9606V40.0919H40.4988V23.8764H51.7378V40.0922H62.1051V0H51.7378V14.127H40.402V0ZM10.367 9.05346H12.8858C15.5991 9.05346 17.4399 9.84935 18.6025 11.441C19.6679 12.9331 20.2493 15.8188 20.3462 20.0966C20.3462 20.0966 20.3462 20.1958 20.3462 20.2953C20.3462 23.3792 20.0557 25.7673 19.5716 27.2594C19.087 28.7515 18.4084 29.746 17.4399 30.3429C16.4708 30.9404 15.0177 31.2389 12.8858 31.2389H10.367V9.05346Z" fill="#131F3F"/>
<path d="M156.279 21.6883C154.633 23.6781 153.856 26.0652 153.856 28.8507C153.856 31.9353 154.633 34.4224 156.279 36.4121C157.83 38.3015 159.768 39.1975 161.899 39.1975C163.933 39.1975 165.678 38.3015 167.227 36.7103C168.488 35.218 169.359 33.4277 169.843 31.1384L169.262 30.8402C168.585 32.5317 167.808 33.7254 167.034 34.4223C165.968 35.4169 164.709 35.9142 163.352 35.9142C161.511 35.9142 159.961 35.0188 158.896 33.2279C157.732 31.4379 157.151 29.3477 157.151 27.1596C157.151 24.8711 157.732 23.0807 158.896 21.5879C159.768 20.5933 160.833 20.0963 162.191 20.0963C163.061 20.0963 163.74 20.295 164.224 20.5933C164.709 21.0909 164.999 21.688 165.097 22.583C165.097 23.3789 165.29 23.9756 165.483 24.2744C165.968 24.7719 166.55 25.0703 167.324 25.0703C167.905 25.0703 168.39 24.8711 168.777 24.5728C169.069 24.2744 169.262 23.8761 169.262 23.2794C169.262 22.1851 168.68 21.091 167.519 20.0964C166.355 19.1014 164.805 18.6037 162.965 18.6037C160.154 18.604 157.927 19.599 156.279 21.6883Z" fill="#131F3F"/>
<path d="M171.879 23.678C171.006 25.4685 170.619 27.2594 170.619 29.0498C170.619 31.5365 171.296 33.7254 172.75 35.6157C174.398 38.0031 176.723 39.1975 179.63 39.1975C181.373 39.1975 182.922 38.7001 184.376 37.7055C185.829 36.8095 186.896 35.5167 187.768 33.6255C188.64 31.9353 189.027 30.1437 189.027 28.4529C189.027 25.9662 188.252 23.7772 186.799 21.8872C185.055 19.5992 182.827 18.5045 179.92 18.5045C178.369 18.5045 176.82 18.9023 175.464 19.7979C173.817 20.6933 172.654 21.9862 171.879 23.678ZM175.075 22.9813C175.559 21.788 176.044 20.9917 176.82 20.5938C177.497 20.1959 178.273 19.9966 179.047 19.9966C180.599 19.9966 181.761 20.5938 182.73 21.9864C184.183 23.9761 184.861 26.6625 184.861 30.144C184.861 32.9303 184.376 34.82 183.602 35.9146C182.73 37.0088 181.664 37.6051 180.308 37.6051C178.563 37.6051 177.11 36.6105 175.948 34.5216C174.882 32.4328 174.302 30.0451 174.302 27.2596C174.398 25.5681 174.59 24.0754 175.075 22.9813Z" fill="#131F3F"/>
<path d="M188.834 21.6883C189.318 21.4892 189.803 21.2905 190.189 21.2905C190.869 21.2905 191.353 21.6883 191.546 22.5834C191.642 23.081 191.741 24.5732 191.741 26.6624V34.123C191.741 35.9144 191.353 37.1079 190.772 37.5059C190.384 37.6051 189.803 37.7057 188.931 37.7057V38.5011H198.231V37.7057C197.166 37.7057 196.487 37.6051 196.197 37.5059C195.518 37.1079 195.228 36.0142 195.228 34.123V23.7772C195.81 23.081 196.682 22.3841 197.844 21.6883C198.62 21.2905 199.394 21.0912 200.073 21.0912C201.138 21.0912 202.01 21.5882 202.592 22.4838C203.076 23.1805 203.173 24.2747 203.173 25.9662V34.3225C203.173 35.417 203.173 36.2128 203.173 36.4122C202.979 36.9096 202.688 37.307 202.3 37.5059C201.914 37.7057 201.235 37.8047 200.169 37.8047V38.6001H209.761V37.8047C208.793 37.8047 208.113 37.7055 207.727 37.5059C207.339 37.307 207.048 37.0088 206.855 36.7104C206.758 36.4122 206.66 35.6159 206.66 34.2233V23.8762C208.501 22.0858 210.15 21.1908 211.504 21.1908C212.764 21.1908 213.637 21.6883 214.121 22.5833C214.51 23.1805 214.703 24.2747 214.703 25.966V34.3223C214.703 35.5167 214.703 36.2126 214.606 36.4121C214.314 37.407 213.442 37.9047 211.989 37.9047H211.603V38.7001H221V37.9047C220.128 37.9047 219.547 37.8047 219.159 37.6049C218.771 37.407 218.578 37.1079 218.385 36.8095C218.287 36.3118 218.19 35.4169 218.19 34.3223V25.966C218.19 24.1751 217.997 22.8816 217.706 22.0858C217.221 20.7928 216.641 19.8969 215.864 19.3993C215.09 18.9022 214.218 18.7035 213.153 18.7035C212.088 18.7035 211.118 18.9022 210.15 19.4994C209.18 19.9964 208.017 21.0912 206.563 22.8816C205.983 20.0966 204.432 18.7035 201.816 18.7035C201.042 18.7035 200.362 18.803 199.685 19.1014C199.104 19.3993 198.425 19.7976 197.747 20.3943C197.359 20.6931 196.487 21.489 195.228 22.8815V18.7033H194.356L188.64 21.0909L188.834 21.6883Z" fill="#131F3F"/>
<path d="M146.978 36.8095C146.978 37.407 147.173 38.0032 147.657 38.5009C148.141 38.9983 148.626 39.1975 149.303 39.1975C149.981 39.1975 150.465 38.9983 150.95 38.5009C151.338 38.1023 151.533 37.5057 151.533 36.8095C151.533 36.1126 151.338 35.6157 150.95 35.1181C150.465 34.6207 149.981 34.4224 149.303 34.4224C148.723 34.4224 148.141 34.6207 147.657 35.1181C147.173 35.6159 146.978 36.1126 146.978 36.8095Z" fill="#131F3F"/>
<path d="M121.691 10.7447H121.013C120.334 12.4357 119.849 13.5298 119.56 14.0273C118.881 15.0224 118.107 16.0175 117.137 16.9125C116.168 17.7089 115.393 18.4048 114.617 18.7036V19.4995H117.912V33.9254C117.912 35.417 118.008 36.5113 118.396 37.307C118.784 38.1024 119.268 38.7002 119.849 39.0977C120.529 39.496 121.206 39.6951 121.884 39.6951C124.306 39.6951 126.05 38.2032 127.116 35.1182H126.244C126.051 35.716 125.662 36.2128 125.178 36.5114C124.694 36.9098 124.209 37.0088 123.725 37.0088C122.368 37.0088 121.691 35.8144 121.691 33.428V19.4997H126.535V17.8082H121.691V10.7447Z" fill="#131F3F"/>
<path d="M145.04 25.866C145.04 23.1806 144.266 21.0913 142.813 19.4995C141.36 17.9078 139.422 17.2115 137.096 17.2115C133.995 17.2115 131.572 18.3058 129.83 20.6933C128.28 22.7826 127.407 25.4685 127.407 28.7517C127.407 32.1335 128.28 34.8198 130.119 36.8096C131.96 38.7994 133.995 39.7939 136.515 39.7939C138.839 39.7939 140.68 38.8994 142.328 37.1078C143.782 35.417 144.75 33.4278 145.04 31.3381L144.362 30.8404C143.102 34.2233 141.068 35.9144 138.355 35.9144C136.32 35.9144 134.479 35.019 132.929 33.2281C131.379 31.3381 130.603 28.8507 130.603 25.7673H145.04L145.04 25.866ZM130.702 24.4734C130.895 22.6829 131.573 21.2903 132.541 20.2953C133.51 19.3007 134.577 18.8031 135.835 18.8031C136.708 18.8031 137.484 19.0019 138.258 19.4994C138.937 19.9964 139.518 20.6931 140.003 21.5882C140.196 22.0858 140.391 23.081 140.487 24.4734H130.702Z" fill="#131F3F"/>
<path d="M111.905 35.5167C111.809 35.019 111.711 33.7256 111.809 31.7364V24.4734C111.809 22.4836 111.614 20.9915 111.325 20.2953C110.936 19.3007 110.257 18.6038 109.385 18.1065C108.126 17.5093 106.577 17.1119 104.832 17.1119C102.409 17.1119 100.568 17.6089 99.2123 18.8033C97.8568 19.8971 97.275 21.191 97.275 22.4839C97.275 23.1806 97.3726 23.7773 97.7593 24.0757C98.0496 24.4737 98.5343 24.6729 99.2123 24.6729C99.7941 24.6729 100.181 24.4737 100.568 24.0757C100.956 23.6783 101.15 23.0811 101.053 22.4839L100.956 21.0913C100.956 20.3946 101.247 19.8971 101.925 19.3008C102.506 18.8033 103.282 18.5045 104.251 18.5045C105.51 18.5045 106.479 18.9023 107.157 19.6982C107.835 20.3945 108.126 21.8872 108.126 24.0756V25.0706C105.316 26.0652 103.378 26.8611 102.216 27.4578C99.6965 28.652 97.9528 30.045 97.1774 31.4382C96.6929 32.2339 96.4993 33.1284 96.4993 34.2233C96.4993 35.8144 96.9839 37.2078 97.8566 38.203C98.8256 39.1976 99.9876 39.695 101.441 39.695C102.409 39.695 103.185 39.4958 103.959 39.0975C104.541 38.7993 105.897 37.8047 108.03 36.1126C108.03 37.407 108.126 38.3015 108.611 38.7993C109.095 39.2967 109.676 39.595 110.451 39.595C111.905 39.595 113.551 38.4019 115.296 36.0142V34.6207C114.327 35.6159 113.746 36.1126 113.455 36.4121C113.262 36.5113 113.067 36.5113 112.874 36.6103C112.582 36.6103 112.389 36.5111 112.293 36.4121C112.099 36.3118 111.905 36.0141 111.905 35.5167ZM103.572 28.4529C104.251 28.055 105.705 27.3586 108.03 26.4631V34.6207C106.092 36.2128 104.541 37.0087 103.475 37.0087C102.701 37.0087 101.925 36.6103 101.248 35.8143C100.568 35.0188 100.279 34.2231 100.279 33.0292C100.279 32.1335 100.568 31.3381 101.15 30.542C101.537 29.8452 102.409 29.0499 103.572 28.4529Z" fill="#131F3F"/>
<path d="M68.4992 4.87531C66.1739 7.36202 65.0114 10.1477 65.0114 13.3311C65.0114 15.8188 65.6892 18.1063 67.2399 20.2953C68.6926 22.2854 70.7278 23.9759 73.4404 25.2698C70.6304 25.966 68.7899 26.6624 67.7243 27.2596C65.6892 28.5525 64.7204 30.343 64.7204 32.631C64.7204 34.7208 65.593 36.6105 67.3366 38.1024C68.1113 38.7993 69.177 39.3968 70.34 39.7939C69.8558 39.695 69.3711 39.595 68.8865 39.595C68.208 39.595 67.5306 39.695 67.0462 39.7939C66.9487 39.7939 66.8519 39.7939 66.7552 39.8939C65.7858 40.2913 64.8172 40.8891 64.0421 41.7835C62.6858 43.2761 62.1045 45.0668 62.1045 47.1565C62.1045 49.8426 63.0731 52.1306 64.817 53.8223C67.6264 56.6074 72.3745 58 79.1563 58C85.4543 58 90.2017 56.8072 93.4957 54.4186C96.499 52.2301 97.9525 49.1466 98.1453 45.2659V44.4699C98.1453 42.6792 97.7588 41.1867 97.1771 39.8939H96.9836C96.3055 38.6001 95.3366 37.5059 94.1742 36.7104C92.7207 35.6159 91.1706 34.8198 89.3295 34.3225C87.4884 33.8254 85.2603 33.6256 82.4507 33.6256H74.7967C70.921 33.6256 68.983 32.631 68.983 30.5422C68.983 28.2542 71.212 26.9608 75.7656 26.5627C79.0596 26.3636 81.0943 26.1649 81.6753 26.0652C83.8068 25.6673 85.7446 24.8714 87.4884 23.6782C91.0739 21.2905 92.8176 18.007 92.9144 13.8288C92.9144 10.4461 91.6552 7.26313 89.1362 4.17861C90.3954 3.08436 91.5584 2.48718 92.7208 2.48718C93.7865 2.48718 94.6588 2.88566 95.1431 3.58143L96.2083 5.07416C96.9836 6.16842 97.8563 6.66594 98.9216 6.66594C99.5987 6.66594 100.083 6.46678 100.471 5.96925C100.956 5.47219 101.15 4.87546 101.15 4.07911C101.15 2.88581 100.568 1.89076 99.5026 0.995209C98.5338 0.398637 97.372 0.000153783 95.8211 0.000153783C94.4644 0.000153783 93.2054 0.298978 92.0422 0.796505C90.8798 1.29403 89.5232 2.08946 88.0702 3.28322C84.9705 1.19437 81.967 0.199165 79.06 0.199165C77.122 0.199165 75.1843 0.696692 73.3438 1.49258C71.5029 2.28847 69.9527 3.48192 68.4992 4.87531ZM72.2782 8.85476C72.6652 7.26298 73.1496 5.77039 73.8284 4.6763C75.1843 2.38829 76.9288 1.19437 79.1568 1.19437C80.998 1.19437 82.548 2.08931 83.7105 3.78075C85.2608 6.16842 86.1328 9.25232 86.1328 13.1326C86.1328 16.9127 85.4547 19.8971 84.1949 22.0859C83.0325 24.1752 81.288 25.2699 79.06 25.2699C76.9288 25.2699 75.0876 24.1752 73.6341 22.0859C72.1807 19.8971 71.5029 17.1119 71.5994 13.7293C71.5994 12.1374 71.8905 10.5456 72.2782 8.85476ZM83.5172 40.3912C86.5201 40.69 88.5546 41.1867 89.4269 41.7835C91.1712 42.9779 91.946 44.7681 91.946 47.0561C91.946 49.9419 90.6868 52.3296 88.1675 54.1202C85.6485 56.0102 82.2574 56.8072 78.1888 56.9056C74.216 56.9056 71.0184 56.1102 68.5961 54.4184C66.0773 52.8269 64.8176 50.7372 64.8176 48.1513C64.8176 46.5592 65.2051 45.2658 66.0773 44.1715C66.8524 43.1763 67.9181 42.5791 69.1771 42.6792C69.9527 42.6792 70.5338 42.7786 71.1151 43.1763C71.5994 43.4751 72.1808 44.1715 72.7627 45.0666L73.5374 44.8687V44.3707C73.5374 42.9778 73.0528 41.8835 72.2782 40.9881C71.7936 40.5892 71.3092 40.2913 70.8247 40.0921C71.406 40.2913 71.9871 40.3912 72.6652 40.4904H83.517L83.5172 40.3912Z" fill="#131F3F"/>
</svg>
