<svg width="170" height="70" viewBox="0 0 170 70" fill="none" xmlns="http://www.w3.org/2000/svg">
<path d="M21.9823 15.2724C9.99174 15.2724 0 20.5001 0 36.2719C0 48.7666 6.71872 56.6351 22.2919 56.6351C40.6223 56.6351 41.7974 44.2263 41.7974 44.2263H32.9154C32.9154 44.2263 31.0111 50.9079 21.7501 50.9079C14.2073 50.9079 8.78224 45.6716 8.78224 38.3321H42.7262V33.7265C42.7262 26.4655 38.2408 15.2724 21.9823 15.2724ZM21.6727 21.1586C28.8527 21.1586 33.7475 25.6789 33.7475 32.4538H8.97869C8.97869 25.2614 15.3677 21.1586 21.6727 21.1586Z" fill="#131F3F"/>
<path d="M42.7199 0V48.7145C42.7199 51.4797 42.5278 55.3624 42.5278 55.3624H50.9993C50.9993 55.3624 51.3034 52.5738 51.3034 50.0253C51.3034 50.0253 55.4889 56.7544 66.8695 56.7544C78.8537 56.7544 86.9941 48.204 86.9941 35.9537C86.9941 24.5575 79.5169 15.3917 66.8888 15.3917C55.0635 15.3917 51.389 21.954 51.389 21.954V0H42.7199ZM64.7022 21.4171C72.8404 21.4171 78.0154 27.6242 78.0154 35.9537C78.0154 44.8857 72.0385 50.729 64.7602 50.729C56.0743 50.729 51.389 43.7594 51.389 36.0333C51.389 28.834 55.5933 21.4171 64.7022 21.4171Z" fill="#131F3F"/>
<path d="M108.048 15.2724C90.0087 15.2724 88.8518 25.4228 88.8518 27.0448H97.8305C97.8305 27.0448 98.3013 21.1188 107.428 21.1188C113.359 21.1188 117.955 23.9086 117.955 29.2721V31.1811H107.428C93.4534 31.1811 86.0653 35.3824 86.0653 43.9081C86.0653 52.2986 92.8917 56.8638 102.117 56.8638C114.689 56.8638 118.739 49.7247 118.739 49.7247C118.739 52.5642 118.952 55.3624 118.952 55.3624H126.934C126.934 55.3624 126.624 51.894 126.624 49.675V30.495C126.624 17.919 116.753 15.2724 108.048 15.2724ZM117.955 36.9083V39.4537C117.955 42.7735 115.962 51.0273 104.226 51.0273C97.7994 51.0273 95.044 47.7312 95.044 43.9081C95.044 36.953 104.323 36.9083 117.955 36.9083Z" fill="#131F3F"/>
<path d="M121.789 16.8649H131.89L146.387 46.7108L160.85 16.8649H170L143.656 70H134.058L141.66 55.1879L121.789 16.8649Z" fill="#131F3F"/>
</svg>
