<svg width="66" height="50" viewBox="0 0 66 50" fill="none" xmlns="http://www.w3.org/2000/svg">
<path d="M38.5158 32.5226C36.8738 33.6299 34.9665 34.2152 33 34.2152C31.0337 34.2152 29.1264 33.6299 27.4844 32.5226L0.439441 14.2847C0.289395 14.1835 0.143215 14.078 0 13.9696V43.8544C0 47.2807 2.74893 50 6.07574 50H59.9241C63.3115 50 65.9999 47.2195 65.9999 43.8544V13.9694C65.8564 14.0782 65.71 14.1839 65.5595 14.2852L38.5158 32.5226Z" fill="#F3F5FF"/>
<path d="M2.58457 11.0299L29.6295 29.2679C30.6533 29.9583 31.8266 30.3035 32.9999 30.3035C34.1733 30.3035 35.3467 29.9582 36.3705 29.2679L63.4154 11.0299C65.0339 9.93918 66 8.11373 66 6.14355C66 2.75591 63.2753 0 59.9263 0H6.07368C2.72469 0.000130389 0 2.75604 0 6.14681C0 8.11373 0.966281 9.93918 2.58457 11.0299Z" fill="#F3F5FF"/>
</svg>
