<svg width="264" height="66" viewBox="0 0 264 66" fill="none" xmlns="http://www.w3.org/2000/svg">
<g clip-path="url(#clip0_918_52)">
<path fill-rule="evenodd" clip-rule="evenodd" d="M76.0822 0.202364C78.1068 -0.121563 80.4552 -0.283528 82.1558 0.971686C83.2491 1.7815 83.6135 3.23917 83.5325 4.53488C83.6135 6.68089 82.6012 8.94837 80.6982 10.0821C79.038 10.9729 76.973 11.0539 75.1104 10.8919C73.8552 10.73 72.6 10.0416 71.9522 8.90788C70.4945 5.54715 72.3166 0.850216 76.0822 0.202364Z" fill="#131F3F"/>
<path d="M76.0822 0.202364C78.1068 -0.121563 80.4552 -0.283528 82.1558 0.971686C83.2491 1.7815 83.6135 3.23917 83.5325 4.53488C83.6135 6.68089 82.6012 8.94837 80.6982 10.0821C79.038 10.9729 76.973 11.0539 75.1104 10.8919C73.8552 10.73 72.6 10.0416 71.9522 8.90788C70.4945 5.54715 72.3166 0.850216 76.0822 0.202364Z" stroke="#131F3F" stroke-width="1.41191" stroke-miterlimit="2.613"/>
<path fill-rule="evenodd" clip-rule="evenodd" d="M15.508 2.5917C15.6294 1.45796 16.6417 0.405202 17.8564 0.445693C26.6429 0.445693 35.4699 0.486184 44.2159 0.445693C45.1877 0.364712 46.2 0.769617 46.6859 1.61992C47.3337 2.75367 46.7669 4.04937 46.6859 5.18312C46.4025 6.80275 46.4834 8.94876 44.6209 9.55612C38.2233 9.75858 31.7853 9.55612 25.3877 9.6371C24.7804 13.6862 24.2135 17.6948 23.6061 21.7439C23.6061 21.8653 23.6466 22.2297 23.6466 22.3917C28.3436 22.3512 33.0405 22.3917 37.7374 22.3512C39.0331 22.2702 40.4098 23.404 40.2883 24.7402C40.1669 26.1573 39.8834 27.534 39.6405 28.9512C39.519 29.923 38.7497 30.7733 37.7374 30.9758C32.5141 31.0972 27.2098 30.8543 21.9865 31.0972C21.1362 36.8874 20.1644 42.6371 19.2736 48.3868C19.1521 49.5205 18.2209 50.5328 17.0871 50.5733C14.9006 50.6138 12.7141 50.6138 10.5681 50.5733C9.15092 50.6138 8.01717 49.0346 8.38159 47.6984C10.7301 32.6764 13.119 17.6543 15.508 2.5917Z" fill="#131F3F"/>
<path d="M15.508 2.5917C15.6294 1.45796 16.6417 0.405202 17.8564 0.445693C26.6429 0.445693 35.4699 0.486184 44.2159 0.445693C45.1877 0.364712 46.2 0.769617 46.6859 1.61992C47.3337 2.75367 46.7669 4.04937 46.6859 5.18312C46.4025 6.80275 46.4834 8.94876 44.6209 9.55612C38.2233 9.75858 31.7853 9.55612 25.3877 9.6371C24.7804 13.6862 24.2135 17.6948 23.6061 21.7439C23.6061 21.8653 23.6466 22.2297 23.6466 22.3917C28.3436 22.3512 33.0405 22.3917 37.7374 22.3512C39.0331 22.2702 40.4098 23.404 40.2883 24.7402C40.1669 26.1573 39.8834 27.534 39.6405 28.9512C39.519 29.923 38.7497 30.7733 37.7374 30.9758C32.5141 31.0972 27.2098 30.8543 21.9865 31.0972C21.1362 36.8874 20.1644 42.6371 19.2736 48.3868C19.1521 49.5205 18.2209 50.5328 17.0871 50.5733C14.9006 50.6138 12.7141 50.6138 10.5681 50.5733C9.15092 50.6138 8.01717 49.0346 8.38159 47.6984C10.7301 32.6764 13.119 17.6543 15.508 2.5917Z" stroke="#131F3F" stroke-width="1.41191" stroke-miterlimit="2.613"/>
<path fill-rule="evenodd" clip-rule="evenodd" d="M54.3386 0.526578C56.3227 0.364615 58.3472 0.486089 60.3313 0.445598C61.546 0.364616 62.8012 1.33639 62.8822 2.59161C62.8822 3.56338 62.5988 4.57566 62.4773 5.54743C60.8577 15.7916 59.238 26.0358 57.6184 36.2395C57.3755 37.8996 56.9705 39.6407 57.4969 41.3413C58.0638 43.0014 60.6147 42.3131 61.2221 44.0542C61.627 45.4714 61.1816 46.929 61.0601 48.4272C60.9386 50.3303 58.7521 50.7757 57.2945 51.1806C54.0552 51.7879 50.1276 51.3425 47.7791 48.6701C46.0785 46.7266 45.9975 43.9732 46.3215 41.5033C48.346 28.5057 50.3705 15.5082 52.4356 2.51062C52.5975 1.57934 53.3264 0.688542 54.3386 0.526578Z" fill="#131F3F"/>
<path d="M54.3386 0.526578C56.3227 0.364615 58.3472 0.486089 60.3313 0.445598C61.546 0.364616 62.8012 1.33639 62.8822 2.59161C62.8822 3.56338 62.5988 4.57566 62.4773 5.54743C60.8577 15.7916 59.238 26.0358 57.6184 36.2395C57.3755 37.8996 56.9705 39.6407 57.4969 41.3413C58.0638 43.0014 60.6147 42.3131 61.2221 44.0542C61.627 45.4714 61.1816 46.929 61.0601 48.4272C60.9386 50.3303 58.7521 50.7757 57.2945 51.1806C54.0552 51.7879 50.1276 51.3425 47.7791 48.6701C46.0785 46.7266 45.9975 43.9732 46.3215 41.5033C48.346 28.5057 50.3705 15.5082 52.4356 2.51062C52.5975 1.57934 53.3264 0.688542 54.3386 0.526578Z" stroke="#131F3F" stroke-width="1.41191" stroke-miterlimit="2.613"/>
<path fill-rule="evenodd" clip-rule="evenodd" d="M130.137 2.59159C130.259 1.45785 131.271 0.445587 132.445 0.445587H138.236C139.693 0.405096 140.867 1.98423 140.544 3.32043C139.207 11.783 137.831 20.2861 136.494 28.7487C138.519 28.4652 140.787 28.0603 142.244 26.4407C144.593 23.7683 146.536 20.6505 148.034 17.4112C148.52 16.156 148.804 14.3339 150.423 14.091C152.61 14.01 154.837 14.091 156.983 14.091C158.481 14.091 159.574 15.7511 159.088 17.1278C158.521 19.1523 157.55 21.0149 156.578 22.7965C154.391 26.4002 151.921 29.9634 148.723 32.7572C150.099 36.9683 151.921 41.1388 153.501 45.2689C153.946 46.6456 155.08 48.2652 154.027 49.6014C152.853 51.221 150.626 50.4112 148.966 50.6137C147.265 50.4112 144.755 51.302 143.823 49.3585C142.042 45.1879 140.544 40.9364 138.721 36.7658C137.669 36.8063 136.535 36.8468 135.482 36.7253C135.401 36.8873 135.239 37.1707 135.158 37.3327C134.591 41.1793 133.984 44.9855 133.377 48.7916C133.174 49.7229 132.445 50.5327 131.433 50.5732C129.409 50.6542 127.344 50.6137 125.279 50.6137C124.388 50.6137 123.578 50.0468 123.213 49.2775C122.809 48.5082 123.052 47.6174 123.173 46.8076C125.481 32.0689 127.789 17.3302 130.137 2.59159Z" fill="#131F3F"/>
<path d="M130.137 2.59159C130.259 1.45785 131.271 0.445587 132.445 0.445587H138.236C139.693 0.405096 140.867 1.98423 140.544 3.32043C139.207 11.783 137.831 20.2861 136.494 28.7487C138.519 28.4652 140.787 28.0603 142.244 26.4407C144.593 23.7683 146.536 20.6505 148.034 17.4112C148.52 16.156 148.804 14.3339 150.423 14.091C152.61 14.01 154.837 14.091 156.983 14.091C158.481 14.091 159.574 15.7511 159.088 17.1278C158.521 19.1523 157.55 21.0149 156.578 22.7965C154.391 26.4002 151.921 29.9634 148.723 32.7572C150.099 36.9683 151.921 41.1388 153.501 45.2689C153.946 46.6456 155.08 48.2652 154.027 49.6014C152.853 51.221 150.626 50.4112 148.966 50.6137C147.265 50.4112 144.755 51.302 143.823 49.3585C142.042 45.1879 140.544 40.9364 138.721 36.7658C137.669 36.8063 136.535 36.8468 135.482 36.7253C135.401 36.8873 135.239 37.1707 135.158 37.3327C134.591 41.1793 133.984 44.9855 133.377 48.7916C133.174 49.7229 132.445 50.5327 131.433 50.5732C129.409 50.6542 127.344 50.6137 125.279 50.6137C124.388 50.6137 123.578 50.0468 123.213 49.2775C122.809 48.5082 123.052 47.6174 123.173 46.8076C125.481 32.0689 127.789 17.3302 130.137 2.59159Z" stroke="#131F3F" stroke-width="1.41191" stroke-miterlimit="2.613"/>
<path fill-rule="evenodd" clip-rule="evenodd" d="M236.264 6.76234C236.547 5.66909 237.559 4.98073 238.612 5.02123C240.11 5.06172 241.73 4.98074 243.269 5.06172C244.524 5.10221 245.536 6.35743 245.374 7.57215C245.131 9.75866 244.605 11.9047 244.443 14.0912C245.941 14.0912 247.48 14.0912 248.978 14.0912C250.314 14.0912 251.407 15.4679 251.205 16.7636C251.002 17.9783 250.719 19.112 250.557 20.2863C250.355 21.258 249.504 22.0679 248.573 22.2298C246.751 22.3513 244.969 22.1488 243.147 22.3513C242.378 27.4531 241.528 32.5955 240.718 37.6973C240.596 38.8715 240.515 40.2077 241.204 41.2605C242.256 42.5157 244.038 42.0703 245.455 42.2323C246.589 42.5562 247.358 43.8114 247.156 44.9856C246.994 46.2814 246.913 47.5771 246.589 48.8323C246.144 50.2494 244.524 50.4924 243.228 50.8568C239.746 51.7881 235.737 51.7881 232.66 49.7636C229.785 47.82 229.34 44.0139 229.623 40.8151C230.433 34.62 231.688 28.4654 232.377 22.2298C231.283 22.2703 230.028 22.4323 229.218 21.4605C228.287 20.4887 228.773 19.112 228.935 17.8973C229.137 16.6421 229.137 15.0225 230.474 14.3341C231.567 13.9292 232.822 14.2126 234.037 14.0507C234.806 11.6212 235.494 9.19178 236.264 6.76234Z" fill="#131F3F"/>
<path d="M236.264 6.76234C236.547 5.66909 237.559 4.98073 238.612 5.02123C240.11 5.06172 241.73 4.98074 243.269 5.06172C244.524 5.10221 245.536 6.35743 245.374 7.57215C245.131 9.75866 244.605 11.9047 244.443 14.0912C245.941 14.0912 247.48 14.0912 248.978 14.0912C250.314 14.0912 251.407 15.4679 251.205 16.7636C251.002 17.9783 250.719 19.112 250.557 20.2863C250.355 21.258 249.504 22.0679 248.573 22.2298C246.751 22.3513 244.969 22.1488 243.147 22.3513C242.378 27.4531 241.528 32.5955 240.718 37.6973C240.596 38.8715 240.515 40.2077 241.204 41.2605C242.256 42.5157 244.038 42.0703 245.455 42.2323C246.589 42.5562 247.358 43.8114 247.156 44.9856C246.994 46.2814 246.913 47.5771 246.589 48.8323C246.144 50.2494 244.524 50.4924 243.228 50.8568C239.746 51.7881 235.737 51.7881 232.66 49.7636C229.785 47.82 229.34 44.0139 229.623 40.8151C230.433 34.62 231.688 28.4654 232.377 22.2298C231.283 22.2703 230.028 22.4323 229.218 21.4605C228.287 20.4887 228.773 19.112 228.935 17.8973C229.137 16.6421 229.137 15.0225 230.474 14.3341C231.567 13.9292 232.822 14.2126 234.037 14.0507C234.806 11.6212 235.494 9.19178 236.264 6.76234Z" stroke="#131F3F" stroke-width="1.41191" stroke-miterlimit="2.613"/>
<path fill-rule="evenodd" clip-rule="evenodd" d="M214.682 19.1522C217.071 16.7633 219.987 14.7387 223.307 13.7669C224.764 13.1191 226.627 14.3338 226.586 15.9534C226.303 18.059 225.817 20.124 225.493 22.189C225.331 23.2013 224.481 24.0921 223.428 24.2136C219.703 24.8614 216.423 27.1289 213.872 29.8013C213.225 30.6111 212.253 31.3399 212.131 32.4737C211.321 37.8185 210.471 43.2037 209.661 48.508C209.54 49.6418 208.528 50.7755 207.353 50.6946H201.523C200.187 50.7755 199.012 49.3988 199.174 48.0626C200.875 37.4541 202.535 26.9264 204.195 16.3583C204.276 15.2651 205.045 14.2528 206.139 14.1314C207.556 14.0504 208.973 14.1314 210.431 14.1314C211.564 14.1314 212.617 15.1436 212.617 16.3179C212.617 17.978 212.455 19.6381 212.455 21.2982C213.346 20.7314 213.913 19.8406 214.682 19.1522Z" fill="#131F3F"/>
<path d="M214.682 19.1522C217.071 16.7633 219.987 14.7387 223.307 13.7669C224.764 13.1191 226.627 14.3338 226.586 15.9534C226.303 18.059 225.817 20.124 225.493 22.189C225.331 23.2013 224.481 24.0921 223.428 24.2136C219.703 24.8614 216.423 27.1289 213.872 29.8013C213.225 30.6111 212.253 31.3399 212.131 32.4737C211.321 37.8185 210.471 43.2037 209.661 48.508C209.54 49.6418 208.528 50.7755 207.353 50.6946H201.523C200.187 50.7755 199.012 49.3988 199.174 48.0626C200.875 37.4541 202.535 26.9264 204.195 16.3583C204.276 15.2651 205.045 14.2528 206.139 14.1314C207.556 14.0504 208.973 14.1314 210.431 14.1314C211.564 14.1314 212.617 15.1436 212.617 16.3179C212.617 17.978 212.455 19.6381 212.455 21.2982C213.346 20.7314 213.913 19.8406 214.682 19.1522Z" stroke="#131F3F" stroke-width="1.41191" stroke-miterlimit="2.613"/>
<path fill-rule="evenodd" clip-rule="evenodd" d="M71.9116 14.2933C73.9767 13.8883 76.1227 14.2123 78.1877 14.0908C79.3619 13.9693 80.6576 14.6982 80.8196 15.8724C80.9816 16.9252 80.6576 17.9779 80.5362 18.9902C78.957 28.8295 77.4184 38.6282 75.8797 48.427C75.7582 49.5203 74.827 50.6135 73.6527 50.6135C71.5877 50.6135 69.5227 50.654 67.4576 50.573C66.1619 50.4515 65.1901 48.9129 65.5546 47.6982C67.1742 37.4945 68.7533 27.3313 70.373 17.1276C70.454 16.0344 70.7779 14.7387 71.9116 14.2933Z" fill="#131F3F"/>
<path d="M71.9116 14.2933C73.9767 13.8883 76.1227 14.2123 78.1877 14.0908C79.3619 13.9693 80.6576 14.6982 80.8196 15.8724C80.9816 16.9252 80.6576 17.9779 80.5362 18.9902C78.957 28.8295 77.4184 38.6282 75.8797 48.427C75.7582 49.5203 74.827 50.6135 73.6527 50.6135C71.5877 50.6135 69.5227 50.654 67.4576 50.573C66.1619 50.4515 65.1901 48.9129 65.5546 47.6982C67.1742 37.4945 68.7533 27.3313 70.373 17.1276C70.454 16.0344 70.7779 14.7387 71.9116 14.2933Z" stroke="#131F3F" stroke-width="1.41191" stroke-miterlimit="2.613"/>
<path fill-rule="evenodd" clip-rule="evenodd" d="M195.53 14.7792C189.821 13.7264 184.031 12.9571 178.24 13.524C173.098 14.1718 167.915 16.5203 164.717 20.7313C160.303 26.3191 158.845 33.8099 159.817 40.7338C160.384 44.054 161.801 47.4148 164.514 49.4798C167.025 51.4234 170.426 51.6663 173.503 51.1804C177.755 50.3706 181.399 47.6172 184.355 44.5399C184.517 45.8356 184.233 47.1718 184.314 48.3865C184.355 49.5608 185.448 50.6945 186.622 50.6135H190.509C191.643 50.6135 192.615 49.5203 192.696 48.427C194.315 38.0614 195.975 27.7767 197.555 17.4516C197.838 16.1964 196.826 14.9411 195.53 14.7792ZM184.8 32.7976C183.302 35.6724 181.156 38.2638 178.726 40.4908C177.35 41.6246 175.568 42.7988 173.746 42.4344C171.883 42.0295 171.033 40.1264 170.628 38.5068C169.656 34.2553 170.547 29.5583 172.936 25.8737C174.029 24.1326 175.73 22.8369 177.714 22.3105C180.508 21.6221 183.423 21.9461 186.136 22.7154L186.258 22.8773C185.934 26.1976 185.286 29.4773 184.8 32.7976Z" fill="#131F3F"/>
<path d="M195.53 14.7792C189.821 13.7264 184.031 12.9571 178.24 13.524C173.098 14.1718 167.915 16.5203 164.717 20.7313C160.303 26.3191 158.845 33.8099 159.817 40.7338C160.384 44.054 161.801 47.4148 164.514 49.4798C167.025 51.4234 170.426 51.6663 173.503 51.1804C177.755 50.3706 181.399 47.6172 184.355 44.5399C184.517 45.8356 184.233 47.1718 184.314 48.3865C184.355 49.5608 185.448 50.6945 186.622 50.6135H190.509C191.643 50.6135 192.615 49.5203 192.696 48.427C194.315 38.0614 195.975 27.7767 197.555 17.4516C197.838 16.1964 196.826 14.9411 195.53 14.7792ZM184.8 32.7976C183.302 35.6724 181.156 38.2638 178.726 40.4908C177.35 41.6246 175.568 42.7988 173.746 42.4344C171.883 42.0295 171.033 40.1264 170.628 38.5068C169.656 34.2553 170.547 29.5583 172.936 25.8737C174.029 24.1326 175.73 22.8369 177.714 22.3105C180.508 21.6221 183.423 21.9461 186.136 22.7154L186.258 22.8773C185.934 26.1976 185.286 29.4773 184.8 32.7976Z" stroke="#131F3F" stroke-width="1.41191" stroke-miterlimit="2.613"/>
<path fill-rule="evenodd" clip-rule="evenodd" d="M120.541 27.0477C120.501 23.2416 119.448 19.233 116.775 16.3581C114.953 14.3336 112.2 13.3213 109.528 13.3213C105.114 13.1998 100.944 15.3459 97.7043 18.2612C97.0159 18.8281 96.4896 19.6784 95.6797 20.1643C95.6797 18.909 95.8012 17.6133 95.7607 16.3581C95.7607 15.1434 94.6675 14.1311 93.5337 14.1311H89.6466C88.4319 14.1311 87.4196 15.2244 87.3791 16.3581C84.9497 31.6232 82.5202 46.8882 80.0908 62.1937C79.7264 63.6109 80.9816 65.0686 82.4392 65.0281C84.5853 64.9876 86.7313 65.19 88.8773 64.8661C90.5374 64.4207 90.5374 62.4771 90.7803 61.06C91.3877 57.6992 91.7926 54.3385 92.1975 50.9373C99.7288 52.3949 108.475 51.3827 114.063 45.714C118.638 40.6931 120.784 33.7692 120.541 27.0477ZM109.852 30.8943C109.609 34.417 108.353 37.9397 105.924 40.5311C102.766 43.5679 97.9472 43.1225 94.0601 42.1103C93.9791 41.9888 93.8576 41.7863 93.8172 41.6649C94.4245 38.3446 94.7484 34.9839 95.4773 31.7041C97.6233 28.1814 100.215 24.6587 103.899 22.7152C105.276 22.0673 107.139 22.2293 108.151 23.4845C109.852 25.509 110.013 28.3434 109.852 30.8943Z" fill="#131F3F"/>
<path d="M120.541 27.0477C120.501 23.2416 119.448 19.233 116.775 16.3581C114.953 14.3336 112.2 13.3213 109.528 13.3213C105.114 13.1998 100.944 15.3459 97.7043 18.2612C97.0159 18.8281 96.4896 19.6784 95.6797 20.1643C95.6797 18.909 95.8012 17.6133 95.7607 16.3581C95.7607 15.1434 94.6675 14.1311 93.5337 14.1311H89.6466C88.4319 14.1311 87.4196 15.2244 87.3791 16.3581C84.9497 31.6232 82.5202 46.8882 80.0908 62.1937C79.7264 63.6109 80.9816 65.0686 82.4392 65.0281C84.5853 64.9876 86.7313 65.19 88.8773 64.8661C90.5374 64.4207 90.5374 62.4771 90.7803 61.06C91.3877 57.6992 91.7926 54.3385 92.1975 50.9373C99.7288 52.3949 108.475 51.3827 114.063 45.714C118.638 40.6931 120.784 33.7692 120.541 27.0477ZM109.852 30.8943C109.609 34.417 108.353 37.9397 105.924 40.5311C102.766 43.5679 97.9472 43.1225 94.0601 42.1103C93.9791 41.9888 93.8576 41.7863 93.8172 41.6649C94.4245 38.3446 94.7484 34.9839 95.4773 31.7041C97.6233 28.1814 100.215 24.6587 103.899 22.7152C105.276 22.0673 107.139 22.2293 108.151 23.4845C109.852 25.509 110.013 28.3434 109.852 30.8943Z" stroke="#131F3F" stroke-width="1.41191" stroke-miterlimit="2.613"/>
</g>
<defs>
<clipPath id="clip0_918_52">
<rect width="264" height="65.1902" fill="white"/>
</clipPath>
</defs>
</svg>
