<svg width="156" height="48" viewBox="0 0 156 48" fill="none" xmlns="http://www.w3.org/2000/svg">
<path d="M54.1676 23.8594C54.1676 29.5495 54.1676 35.2396 54.1676 40.919C54.1676 42.6314 54.0148 44.3118 52.9012 45.7476C51.3509 47.7471 49.233 48.2576 46.853 47.7897C44.3967 47.3111 42.6717 45.3009 42.508 42.3974C42.3115 38.9302 42.4097 35.4417 42.3988 31.9638C42.3879 27.7946 42.3988 27.7946 38.2284 27.7946C34.6585 27.7946 31.0776 27.8584 27.5077 27.7627C26.0011 27.7202 25.5862 28.1881 25.619 29.624C25.7063 33.6123 25.6627 37.6007 25.6408 41.5891C25.6299 44.0459 24.7674 46.1092 22.453 47.3111C19.1014 49.0447 15.0948 47.3111 14.2105 43.7268C13.9266 42.5888 13.883 41.3764 13.883 40.1958C13.8611 29.3262 13.872 18.4672 13.872 7.59752C13.872 6.83175 13.8939 6.06599 14.003 5.31086C14.4725 1.69473 16.5249 -0.0920575 20.0294 0.00366343C23.3155 0.0993843 25.4989 2.30096 25.6408 5.81073C25.7391 8.43774 25.6627 11.0754 25.6627 13.7024C25.6627 17.8397 25.6627 17.8397 29.8221 17.8397C33.3921 17.8397 36.9729 17.7758 40.5429 17.8716C42.0058 17.9141 42.4861 17.51 42.4425 16.0529C42.3333 12.7452 42.3224 9.42685 42.4425 6.11917C42.5735 2.32224 44.6914 0.0993843 48.0103 0.00366343C51.8313 -0.102693 54.0803 2.10952 54.1785 6.2787C54.2659 10.3522 54.2003 14.4256 54.2003 18.4991C54.1676 20.2965 54.1676 22.0726 54.1676 23.8594Z" fill="#131F3F"/>
<path d="M103.328 14.766C107.105 10.852 112.619 11.905 115.817 13.7556C118.35 15.2233 119.256 17.6482 118.252 20.0306C117.237 22.4236 114.9 23.3383 111.974 22.4981C106.974 21.0516 105.413 22.062 104.562 27.1459C103.852 31.4533 104.212 35.7714 104.114 40.0894C104.092 41.1105 104.158 42.1421 104.005 43.1312C103.514 46.2262 101.341 48.0024 98.2842 47.9067C95.4239 47.8216 93.4042 45.9391 93.164 42.8334C92.9784 40.4723 93.0439 38.0899 93.0439 35.7182C93.0439 29.9537 93.033 24.1891 93.0985 18.414C93.1203 15.8402 93.7208 13.4684 96.5265 12.4048C98.9283 11.5221 101.079 12.3091 103.328 14.766Z" fill="#131F3F"/>
<path d="M0.00712923 30.0175C0.00712923 26.0291 -0.0147046 22.0407 0.0180471 18.0524C0.0507989 14.3724 2.04865 12.2028 5.35658 12.1602C8.76276 12.1177 10.9571 14.3618 10.979 18.1056C11.0226 25.9972 11.0335 33.8782 10.979 41.7699C10.9571 45.737 8.81735 47.9598 5.29108 47.9173C1.93948 47.8747 0.0289637 45.6413 0.00712923 41.7167C-0.00378802 37.8241 0.00712923 33.9208 0.00712923 30.0175Z" fill="#131F3F"/>
<path d="M5.42209 0.439717C8.65359 0.397174 10.9135 2.46049 10.9899 5.50229C11.0663 8.71426 8.82827 10.9584 5.54218 10.9797C2.25608 11.0116 0.0617181 9.00142 0.00713186 5.91708C-0.0583716 2.66257 2.11416 0.48226 5.42209 0.439717Z" fill="#131F3F"/>
<path fill-rule="evenodd" clip-rule="evenodd" d="M144.126 12.4793C139.693 11.6072 135.468 12.2134 131.309 15.319C131.309 14.1847 131.318 13.095 131.326 12.0369C131.346 9.55311 131.365 7.24324 131.265 4.93859C131.156 1.97124 129.18 0.120641 126.363 0.0249243C123.307 -0.0814323 121.287 1.58836 120.883 4.61952C120.763 5.54483 120.763 6.48076 120.763 7.41671C120.752 18.5416 120.752 29.6665 120.774 40.7914C120.774 41.9613 120.85 43.1738 121.112 44.3118C121.56 46.2156 122.881 47.4493 124.835 47.8216C126.942 48.2257 129.082 47.8109 130.119 45.9284C130.977 44.3685 131.572 44.7846 132.421 45.3795C132.533 45.4579 132.65 45.5395 132.772 45.62C138.46 49.3637 146.222 48.6192 150.927 43.7587C155.916 38.6217 156.571 32.219 155.643 25.6569C154.595 18.2438 150.501 13.7343 144.126 12.4793ZM133.929 23.1043C132.16 25.1783 131.778 27.667 131.746 30.9002C131.776 31.0753 131.805 31.3018 131.838 31.5634C131.924 32.2393 132.04 33.15 132.291 34.0165C133.165 37.0902 135.305 38.7706 138.209 38.8344C141.123 38.8982 143.329 37.2923 144.279 34.2292C145.327 30.879 145.239 27.4968 143.744 24.2955C141.833 20.2008 136.888 19.6371 133.929 23.1043Z" fill="#131F3F"/>
<path fill-rule="evenodd" clip-rule="evenodd" d="M74.6449 33.4199C75.4203 33.4152 76.2221 33.4103 77.0611 33.4103C77.9277 33.3822 78.8406 33.3981 79.7833 33.4144C81.7024 33.4477 83.7451 33.4831 85.773 33.155C89.1355 32.6126 90.664 30.9747 90.7731 27.6776C90.915 23.6042 89.6159 19.9774 86.701 17.0207C81.4498 11.6816 74.8885 11.1286 68.1089 12.9579C61.7442 14.6596 58.2179 19.2223 56.9624 25.4867C55.2375 34.0697 58.0214 41.6529 64.3206 45.4392C68.6111 48.0236 73.382 48.364 78.1855 47.7152C83.011 47.0664 87.225 45.1308 89.6159 40.6531C90.8386 38.3665 90.4456 36.1011 88.808 34.8886C87.0831 33.6123 84.594 33.8782 82.6398 35.5799C82.3575 35.8266 82.0792 36.0783 81.8008 36.33C80.615 37.4023 79.4287 38.4751 77.9344 39.1642C73.8951 41.0254 69.5609 39.1961 68.229 35.1864C67.7705 33.7931 68.1198 33.3464 69.5937 33.389C71.2279 33.4408 72.8674 33.4308 74.6449 33.4199ZM72.6786 26.101C72.9719 26.0969 73.2648 26.0929 73.5566 26.0929C74.025 26.0929 74.4933 26.0872 74.9617 26.0814C76.0545 26.068 77.1473 26.0546 78.2401 26.1142C79.6375 26.1993 79.9105 25.6781 79.4847 24.4976C78.7096 22.3385 77.2685 20.8602 74.8995 20.4986C72.4322 20.1157 70.4452 20.9772 69.1242 23.0511C69.0587 23.154 68.9888 23.2596 68.9175 23.3673C68.4061 24.1396 67.8211 25.0231 68.2618 25.8164C68.5198 26.2896 69.1895 26.2128 69.8562 26.1363C70.1484 26.1028 70.4401 26.0693 70.6963 26.0823C71.3543 26.1191 72.0174 26.11 72.6786 26.101Z" fill="#131F3F"/>
</svg>
