<svg width="251" height="54" viewBox="0 0 251 54" fill="none" xmlns="http://www.w3.org/2000/svg">
<g clip-path="url(#clip0_920_94)">
<path d="M86.8086 6.44849H93.0748V37.0285H103.877V43.0647H86.8348L86.8086 6.44849Z" fill="#131F3F"/>
<path d="M118.388 15.6224C121.708 15.5803 124.856 17.1151 126.896 19.7707V16.1675H132.743V43.1178H126.896V39.5147C124.856 42.1703 121.708 43.705 118.388 43.6629C111.1 43.6629 105.568 37.3475 105.568 29.636C105.568 21.9246 111.1 15.6224 118.388 15.6224ZM119.45 21.0205C114.718 21.0205 111.585 24.7964 111.585 29.636C111.585 34.4757 114.77 38.2649 119.45 38.2649C124.13 38.2649 127.316 34.4889 127.316 29.636C127.316 24.7831 124.183 21.0205 119.45 21.0205Z" fill="#131F3F"/>
<path d="M137.292 38.4377L151.227 21.5522H137.502V16.1675H158.778V20.914L144.895 37.733H159.092V43.1178H137.292V38.4377Z" fill="#131F3F"/>
<path d="M173.958 15.6224C177.277 15.5803 180.425 17.1151 182.466 19.7707V16.1675H188.312V43.1178H182.466V39.5147C180.425 42.1703 177.277 43.705 173.958 43.6629C166.669 43.6629 161.15 37.3475 161.15 29.636C161.15 21.9246 166.669 15.6224 173.958 15.6224ZM175.02 21.0205C170.287 21.0205 167.154 24.7964 167.154 29.636C167.154 34.4757 170.34 38.2649 175.02 38.2649C179.7 38.2649 182.885 34.4889 182.885 29.636C182.885 24.7831 179.752 21.0205 175.02 21.0205Z" fill="#131F3F"/>
<path d="M205.014 15.6224C208.33 15.5783 211.474 17.1139 213.508 19.7707V4.28125H219.355V43.1178H213.508V39.5147C211.474 42.1715 208.33 43.7071 205.014 43.663C197.725 43.663 192.193 37.3475 192.193 29.636C192.193 21.9246 197.725 15.6224 205.014 15.6224ZM206.075 21.0205C201.343 21.0205 198.21 24.7964 198.21 29.636C198.21 34.4757 201.409 38.2649 206.075 38.2649C210.742 38.2649 213.941 34.489 213.941 29.636C213.941 24.7831 210.808 21.0205 206.075 21.0205Z" fill="#131F3F"/>
<path d="M236.056 15.6223C239.372 15.5781 242.517 17.1138 244.551 19.7705V16.1674H250.384V43.1177H244.524V39.5145C242.49 42.1713 239.346 43.7069 236.03 43.6628C228.741 43.6628 223.209 37.3474 223.209 29.6359C223.209 21.9244 228.767 15.6223 236.056 15.6223ZM237.118 21.0203C232.385 21.0203 229.252 24.7963 229.252 29.6359C229.252 34.4755 232.451 38.2647 237.118 38.2647C241.785 38.2647 244.983 34.4888 244.983 29.6359C244.983 24.783 241.85 21.0203 237.118 21.0203Z" fill="#131F3F"/>
<path d="M32.3795 53.2624C31.9203 53.2656 31.4682 53.1464 31.0686 52.9167C27.6472 50.909 2.30723 34.7947 1.35026 34.3028C0.62198 33.958 0.124675 33.2519 0.0387284 32.4414V9.83878C0.0205043 8.99507 0.431745 8.20109 1.12741 7.73807L1.31093 7.6317C3.76234 6.08941 11.9686 1.01047 13.2664 0.279209C13.5642 0.0999635 13.9034 0.00364714 14.2496 0C14.5742 0.00372497 14.8933 0.0857599 15.1804 0.239322C15.1804 0.239322 26.664 7.83114 28.4206 8.50921C29.6531 9.08353 30.9971 9.36979 32.3533 9.34684C33.8902 9.37942 35.4087 9.00355 36.758 8.2566C38.4753 7.3392 49.4476 0.279209 49.5656 0.279209C49.8422 0.109748 50.1601 0.0222381 50.4832 0.0265913C50.8298 0.0283115 51.1694 0.124767 51.4664 0.3058C52.9609 1.14343 63.1335 7.45886 63.5661 7.73807C64.2816 8.17587 64.7154 8.96478 64.7068 9.81219V32.4148C64.6264 33.2273 64.1275 33.9357 63.3957 34.2762C62.4388 34.808 37.1775 50.9223 33.6905 52.8901C33.2934 53.1291 32.8412 53.2575 32.3795 53.2624Z" fill="#38466D"/>
<path d="M32.2484 53.2625H32.3795C32.8388 53.2657 33.2908 53.1465 33.6904 52.9168C37.1119 50.9091 62.4387 34.7948 63.3957 34.3029C64.1274 33.9624 64.6264 33.254 64.7067 32.4415V9.83889C64.7108 9.45624 64.6254 9.07805 64.4575 8.73535L32.2484 26.6712V53.2625Z" fill="#131F3F"/>
<path d="M0 32.4014C0.0980368 33.2267 0.622739 33.9363 1.37646 34.2628C2.33342 34.7946 27.6734 50.9089 31.0948 52.8767C31.4478 53.0811 31.8427 53.1994 32.2484 53.2224V26.6311L0.1442 8.96118C0.0521454 9.23074 0.0034563 9.51356 0 9.79881V32.4014Z" fill="#131F3F"/>
</g>
<defs>
<clipPath id="clip0_920_94">
<rect width="251" height="54" fill="white"/>
</clipPath>
</defs>
</svg>
