<svg width="204" height="66" viewBox="0 0 204 66" fill="none" xmlns="http://www.w3.org/2000/svg">
<path d="M28.1431 60.4091C43.3559 60.4091 55.6883 48.1376 55.6883 32.9999C55.6883 17.8623 43.3559 5.59082 28.1431 5.59082C12.9303 5.59082 0.5979 17.8623 0.5979 32.9999C0.5979 48.1376 12.9303 60.4091 28.1431 60.4091Z" fill="url(#paint0_linear_0_8)"/>
<path d="M37.052 31.4334L40.5427 21.1895C40.6525 20.8673 40.3434 20.5597 40.0196 20.669L29.9827 24.0558C29.8214 24.1102 29.6436 24.0822 29.5071 23.9809L21.0129 17.6733C20.7389 17.4699 20.3493 17.6674 20.3537 18.0076L20.4895 28.553C20.4917 28.7224 20.41 28.882 20.2709 28.9799L11.6173 35.0693C11.3382 35.2657 11.4066 35.6954 11.7331 35.7964L21.9066 38.9429C22.0363 38.983 22.1378 39.084 22.1781 39.213L25.3403 49.3361C25.4418 49.6609 25.8736 49.729 26.071 49.4513L32.1909 40.8409C32.2892 40.7026 32.4496 40.6212 32.6198 40.6234L43.2171 40.7579C43.559 40.7623 43.7574 40.3747 43.553 40.102L37.052 31.4334ZM23.09 36.9897L16.969 35.0963C16.7476 35.0278 16.7218 34.7262 16.9284 34.6214L26.6489 29.693L35.6726 25.118C35.9287 24.9881 36.2021 25.2602 36.0716 25.515L31.2141 35.0015L26.521 44.1667C26.4157 44.3723 26.1127 44.3467 26.0438 44.1263L24.1412 38.036C23.9854 37.5358 23.5922 37.1445 23.09 36.9897Z" fill="white"/>
<path d="M90.5878 35.0764C91.2329 35.9504 91.5601 37.136 91.5601 38.6003C91.5601 39.7948 91.324 40.8455 90.8586 41.7231C90.3928 42.6001 89.7424 43.3239 88.9254 43.8742C88.1046 44.4274 87.1441 44.8457 86.0707 45.1175C84.9934 45.3892 83.8204 45.5272 82.5843 45.5272C81.3703 45.5272 80.1437 45.394 78.9387 45.1317C77.7351 44.87 76.5724 44.4883 75.4829 43.9972C74.468 43.5401 73.5054 42.9815 72.6179 42.3348C72.5437 42.2807 72.5215 42.1795 72.5653 42.0989L74.0849 39.3074C74.1412 39.204 74.2781 39.1793 74.3665 39.2572C74.6346 39.4933 74.9853 39.7453 75.4139 40.0095C75.9925 40.3669 76.6687 40.712 77.4236 41.0354C78.1762 41.3587 79.011 41.6337 79.9046 41.8526C80.7978 42.0725 81.7227 42.1838 82.6538 42.1838C84.2168 42.1838 85.4318 41.9079 86.2653 41.364C87.1112 40.8114 87.5401 39.9959 87.5401 38.9401C87.5401 38.1146 87.2553 37.4374 86.6936 36.9272C86.1424 36.4281 85.3485 35.9991 84.3338 35.6522C83.3299 35.3092 82.1058 34.9611 80.6964 34.6172C79.0883 34.2073 77.7265 33.7346 76.6489 33.2123C75.5801 32.6941 74.7741 32.033 74.2534 31.2469C73.7334 30.4632 73.4697 29.4263 73.4697 28.1645C73.4697 26.5836 73.8558 25.2285 74.6171 24.1366C75.3793 23.0435 76.4469 22.2089 77.7903 21.6562C79.1398 21.1009 80.6592 20.8193 82.3064 20.8193C83.4059 20.8193 84.4682 20.9407 85.4638 21.18C86.4599 21.4191 87.4006 21.7485 88.2597 22.1589C89.0375 22.5303 89.7453 22.9547 90.3669 23.4223C90.4395 23.4769 90.4598 23.5767 90.4163 23.6562L88.9714 26.3019C88.9141 26.4068 88.7745 26.4293 88.6861 26.3485C88.4884 26.1676 88.2361 25.9791 87.9321 25.7849C87.4774 25.495 86.9465 25.225 86.3541 24.9823C85.762 24.7396 85.103 24.5289 84.3954 24.3556C83.6848 24.1818 82.9469 24.0938 82.2022 24.0938C80.5677 24.0938 79.3333 24.4009 78.5334 25.0069C77.7256 25.6184 77.3161 26.4764 77.3161 27.5569C77.3161 28.3576 77.5467 29.0037 78.0016 29.4773C78.4501 29.9457 79.147 30.3301 80.0727 30.6195C80.9869 30.9063 82.1286 31.2137 83.4669 31.5333C85.1438 31.9202 86.6049 32.3929 87.8097 32.9382C89.0058 33.4796 89.9405 34.1991 90.5878 35.0764ZM102.885 42.091C102.379 42.2902 101.847 42.3912 101.305 42.3912C100.753 42.3912 100.283 42.2338 99.909 41.9233C99.5317 41.6108 99.3162 41.1269 99.2683 40.4852L99.268 30.351H103.045C103.146 30.351 103.229 30.2692 103.229 30.1682V27.778C103.229 27.6771 103.146 27.5952 103.045 27.5952H99.268V21.8318C99.268 21.7309 99.1858 21.6491 99.0844 21.6491H95.8137C95.7123 21.6491 95.6301 21.7309 95.6301 21.8318V27.5952H93.3817C93.2803 27.5952 93.1981 27.6771 93.1981 27.778V30.1682C93.1981 30.2692 93.2803 30.351 93.3817 30.351H95.6301V41.7306C95.6301 42.6488 95.8293 43.4074 96.2223 43.9852C96.6157 44.5645 97.1458 44.9991 97.7979 45.2773C98.4555 45.5579 99.1797 45.7001 99.9504 45.7001C100.589 45.7001 101.213 45.631 101.806 45.495C102.403 45.358 102.96 45.1906 103.461 44.9975C103.85 44.8481 104.183 44.7132 104.455 44.5952C104.539 44.5587 104.583 44.4668 104.559 44.379L103.874 41.9087C103.844 41.8013 103.726 41.7456 103.623 41.7899C103.434 41.8715 103.187 41.9722 102.885 42.091ZM123.526 42.1569C123.667 42.3156 123.877 42.4198 124.154 42.468C124.24 42.4831 124.302 42.5596 124.302 42.6467V45.2188C124.302 45.3069 124.239 45.3833 124.151 45.3988C123.901 45.4436 123.67 45.4755 123.465 45.4938C123.197 45.5157 122.97 45.5397 122.797 45.5611C121.992 45.5398 121.382 45.3393 120.983 44.9645C120.583 44.5898 120.347 44.1428 120.28 43.6389L120.154 42.3692L120.013 42.5568C119.261 43.5527 118.261 44.3337 117.042 44.8783C115.822 45.4235 114.578 45.6999 113.345 45.6999C112.16 45.6999 111.088 45.4556 110.157 44.9738C109.225 44.4913 108.488 43.8278 107.969 43.0018C107.448 42.1762 107.184 41.2359 107.184 40.2072C107.184 39.093 107.51 38.1035 108.155 37.2661C108.804 36.4259 109.715 35.7675 110.861 35.3089C112.015 34.8478 113.353 34.6138 114.84 34.6138C115.65 34.6138 116.475 34.6774 117.292 34.8028C118.113 34.9268 118.867 35.1056 119.535 35.3342L119.656 35.376V34.1131C119.656 32.8444 119.261 31.8371 118.481 31.1188C117.702 30.4031 116.57 30.0401 115.117 30.0401C114.089 30.0401 113.108 30.2168 112.201 30.5651C111.376 30.8805 110.49 31.3471 109.563 31.9538C109.471 32.0147 109.345 31.9816 109.296 31.8818L108.287 29.7884C108.247 29.7057 108.275 29.6053 108.352 29.5549C109.431 28.8471 110.558 28.2973 111.706 27.9195C112.918 27.5214 114.206 27.3194 115.534 27.3194C117.931 27.3194 119.839 27.9495 121.205 29.1922C122.568 30.4322 123.259 32.2205 123.259 34.5078V41.1738C123.259 41.634 123.347 41.9556 123.526 42.1569ZM119.656 37.5241L119.598 37.5016C118.954 37.253 118.258 37.0621 117.531 36.934C116.811 36.8094 116.104 36.7463 115.431 36.7463C114.007 36.7463 112.838 37.0257 111.959 37.5769C111.067 38.1347 110.614 38.9158 110.614 39.8983C110.614 40.4365 110.765 40.9501 111.061 41.4247C111.358 41.8999 111.79 42.2996 112.345 42.6128C112.901 42.9249 113.588 43.0832 114.388 43.0832C115.254 43.0832 116.084 42.9147 116.855 42.5825C117.628 42.2507 118.257 41.8496 118.733 41.3824C118.986 41.0668 119.205 40.7545 119.383 40.4543C119.567 40.1422 119.656 39.8599 119.656 39.5914V37.5241ZM136.806 27.284C135.723 27.3517 134.664 27.7585 133.664 28.4934C132.661 29.2311 131.828 30.2152 131.19 31.4184L131.017 31.7444V27.778C131.017 27.6771 130.934 27.5952 130.833 27.5952H127.875C127.773 27.5952 127.691 27.6771 127.691 27.778V45.1717C127.691 45.2726 127.773 45.3544 127.875 45.3544H131.146C131.247 45.3544 131.329 45.2726 131.329 45.1717V34.3653L131.336 34.3485C131.828 33.1597 132.665 32.2257 133.825 31.5726C134.91 30.9627 136.148 30.6245 137.511 30.5661C137.609 30.5619 137.687 30.483 137.687 30.3851V27.4684C137.687 27.3722 137.612 27.2902 137.516 27.2861C137.483 27.2847 137.449 27.284 137.414 27.284H136.806ZM148.106 20.9915H151.413C151.489 20.9915 151.557 21.0378 151.584 21.1081L160.959 45.1057C161.006 45.2255 160.917 45.3546 160.788 45.3546H157.284C157.206 45.3546 157.137 45.3062 157.111 45.2337L154.746 38.6831H144.752L142.373 45.234C142.347 45.3064 142.278 45.3546 142.201 45.3546H138.698C138.569 45.3546 138.48 45.2253 138.527 45.1055L147.935 21.1079C147.962 21.0377 148.03 20.9915 148.106 20.9915ZM153.774 35.9952L149.76 24.8827L145.771 35.8728L145.726 35.9952H153.774ZM180.822 42.1326C180.963 42.3045 181.175 42.4167 181.454 42.4675C181.539 42.483 181.6 42.5594 181.6 42.6458V45.2127C181.6 45.3025 181.533 45.3795 181.444 45.3936C180.858 45.4859 180.381 45.5422 180.024 45.5611C179.331 45.5611 178.744 45.3535 178.278 44.9442C177.812 44.5366 177.554 44.0514 177.51 43.5065L177.467 41.8944L177.306 42.1481C176.6 43.2581 175.659 44.1371 174.508 44.7607C173.358 45.3839 172.14 45.6999 170.887 45.6999C169.655 45.6999 168.505 45.4551 167.47 44.972C166.431 44.4879 165.517 43.8153 164.753 42.9727C163.991 42.1308 163.389 41.1494 162.964 40.0555C162.542 38.9624 162.327 37.7691 162.327 36.5087C162.327 34.8194 162.681 33.2605 163.379 31.8754C164.073 30.4928 165.038 29.3752 166.248 28.5533C167.456 27.7346 168.864 27.3194 170.435 27.3194C171.824 27.3194 173.088 27.6748 174.19 28.3756C175.294 29.0774 176.155 29.9509 176.75 30.9723L176.921 31.2666V20.4835C176.921 20.3826 177.003 20.3008 177.104 20.3008H180.373C180.475 20.3008 180.557 20.3826 180.557 20.4835V41.1592C180.557 41.5923 180.646 41.9199 180.822 42.1326ZM176.921 34.3287L176.916 34.2983C176.655 33.5599 176.232 32.8951 175.66 32.3219C175.088 31.7491 174.437 31.2785 173.724 30.9232C173.009 30.5665 172.277 30.3856 171.548 30.3856C170.748 30.3856 170.003 30.5612 169.333 30.9074C168.667 31.2507 168.085 31.7111 167.603 32.2762C167.124 32.8381 166.75 33.5016 166.492 34.2478C166.235 34.9904 166.105 35.7744 166.105 36.5782C166.105 37.3801 166.247 38.1588 166.528 38.8931C166.812 39.6324 167.221 40.2903 167.745 40.8487C168.272 41.411 168.89 41.8539 169.582 42.1653C170.274 42.4761 171.04 42.6337 171.86 42.6337C172.375 42.6337 172.905 42.5461 173.435 42.3735C173.961 42.202 174.465 41.9515 174.935 41.6289C175.405 41.3057 175.821 40.9151 176.171 40.4679C176.525 40.017 176.776 39.5305 176.917 39.022L176.921 34.3287ZM198.608 37.7645C198.076 37.1519 197.31 36.6367 196.332 36.2336C195.347 35.8276 194.135 35.4261 192.73 35.0403C191.92 34.7898 191.228 34.5592 190.673 34.354C190.106 34.1447 189.668 33.8904 189.372 33.5981C189.066 33.2971 188.91 32.8783 188.91 32.3535C188.91 31.7377 189.095 31.2494 189.46 30.9024C189.818 30.5619 190.27 30.3242 190.805 30.1957C191.331 30.0692 191.87 30.0051 192.407 30.0051C193.387 30.0051 194.322 30.1818 195.186 30.5303C195.962 30.844 196.72 31.3135 197.441 31.928C197.526 32 197.654 31.9837 197.715 31.8911L199.05 29.8565C199.098 29.7826 199.087 29.6837 199.023 29.623C198.215 28.8625 197.284 28.2897 196.249 27.9184C195.14 27.5205 193.917 27.3187 192.615 27.3187C191.222 27.3187 189.977 27.5412 188.916 27.98C187.859 28.4165 187.025 29.0456 186.436 29.8503C185.848 30.6518 185.55 31.6247 185.55 32.7418C185.55 33.6774 185.767 34.4545 186.193 35.0519C186.622 35.6526 187.282 36.1668 188.156 36.5808C189.04 36.9998 190.129 37.4074 191.392 37.7918C192.286 38.0409 193.076 38.2718 193.737 38.4773C194.403 38.6847 194.927 38.9315 195.294 39.2109C195.675 39.5025 195.869 39.9533 195.869 40.5509C195.869 41.3496 195.52 41.9627 194.834 42.3733C194.163 42.775 193.265 42.9788 192.164 42.9788C191.113 42.9788 190.044 42.7614 188.985 42.3326C188.012 41.9395 187.022 41.3378 186.038 40.5422C185.949 40.4701 185.817 40.4942 185.761 40.5944L184.632 42.6461C184.592 42.7182 184.605 42.8086 184.664 42.8661C185.595 43.7723 186.713 44.4713 187.992 44.9453C189.342 45.4461 190.792 45.7001 192.303 45.7001C194.449 45.7001 196.19 45.2117 197.476 44.2483C198.754 43.2907 199.402 41.9577 199.402 40.2861C199.402 39.2202 199.135 38.3717 198.608 37.7645Z" fill="#141414"/>
<defs>
<linearGradient id="paint0_linear_0_8" x1="52.0019" y1="19.2931" x2="4.4027" y2="46.9109" gradientUnits="userSpaceOnUse">
<stop stop-color="#0046ED"/>
<stop offset="1" stop-color="#00E6D7"/>
</linearGradient>
</defs>
</svg>
