<svg width="259" height="54" viewBox="0 0 259 54" fill="none" xmlns="http://www.w3.org/2000/svg">
<path d="M31.4085 0.13689C13.3856 -1.55532 -1.63705 12.6776 0.143653 29.753C1.46569 42.3909 12.2524 52.6106 25.5915 53.8631C43.6144 55.5553 58.6371 41.3224 56.8563 24.2419C55.5343 11.6091 44.7476 1.38943 31.4085 0.13689ZM30.4804 41.2815C20.5516 42.4778 12.1607 34.528 13.4234 25.1212C14.2814 18.7102 19.7476 13.5314 26.5196 12.7134C36.4484 11.5171 44.8393 19.4669 43.5766 28.8737C42.7132 35.2898 37.247 40.4686 30.4804 41.2815Z" fill="#005BFF"/>
<path d="M71.4436 1C67.3291 1 64.0923 4.58176 64.9433 8.66343C65.568 11.6577 68.5031 13.6985 71.6914 13.6985H90.2176L61.3888 50.0934C60.4409 51.289 61.3349 53 62.8968 53H108.114C111.302 53 114.237 50.954 114.862 47.9649C115.718 43.8832 112.476 40.3015 108.362 40.3015H85.7907L114.598 3.93756C115.551 2.73162 114.652 1 113.074 1C113.074 1 71.4436 1 71.4436 1Z" fill="#005BFF"/>
<path d="M250.965 1.14557C247.902 1.76372 245.802 4.50937 245.802 7.51774V28.6587L210.08 1.40313C208.837 0.45529 207 1.30526 207 2.8352V46.4823C207 49.4906 209.105 52.2363 212.164 52.8544C216.433 53.7199 220.198 50.6085 220.198 46.6523V25.3258L255.92 52.5814C257.163 53.5293 259 52.6793 259 51.1493V7.34775C259 3.39154 255.234 0.280146 250.965 1.14557Z" fill="#005BFF"/>
<path d="M158.5 12.6C173.572 12.6 184.835 20.1989 184.835 27C184.835 33.796 173.572 41.4 158.5 41.4C143.428 41.4 132.165 33.8011 132.165 27C132.165 20.204 143.428 12.6 158.5 12.6ZM158.5 0C136.685 0 119 12.0886 119 27C119 41.9114 136.685 54 158.5 54C180.315 54 198 41.9114 198 27C198 12.0886 180.315 0 158.5 0Z" fill="#005BFF"/>
</svg>
