<svg width="104" height="46" viewBox="0 0 104 46" fill="none" xmlns="http://www.w3.org/2000/svg">
<path d="M43.6082 16.5087C48.5129 4.31294 39.3397 1 33.368 1H13.5852C15.227 2.13882 14.9602 3.65035 14.6318 4.58212L3.09875 41.7492C2.64728 43.2193 0.923468 44.7722 0 45H16.0068C15.1244 44.8344 13.8725 43.5713 14.324 41.8527L18.5104 28.4146C18.5309 28.4146 37.7801 31.0442 43.6082 16.5087V16.5087ZM28.0529 4.41647C30.1461 4.41647 35.9537 4.70635 32.1983 15.784C28.2786 27.4207 19.5775 25.0188 19.5775 25.0188L25.9802 4.41647H28.0529Z" fill="#131F3F"/>
<path d="M56.8824 45.37H68C64.4424 44.2416 59.1906 40.9192 57.0941 38.5579C58.7882 36.74 60.8847 34.4414 61.2659 29.7816H55.5059C55.5059 29.7816 56.6071 30.4085 56.6071 31.7458C56.6071 32.9787 56.0988 34.6922 55.1247 35.8832C53.4306 33.4175 51.6306 30.5966 50.9953 26.4592C53.2612 25.3517 56.4377 24.1397 58.9577 21.9665C61.3506 19.8978 61.9012 17.9336 61.9435 16.659V16.4918C61.9435 15.1544 61.4141 13.9007 60.44 12.9604C58.7671 11.3305 56.1412 10.6618 53.3671 11.1633C51.1435 11.5812 49.2588 12.7514 48.3059 13.6081C44.96 16.7216 44.5365 21.8412 44.5365 24.1606C44.5365 24.7248 44.5577 25.1427 44.5788 25.3935C44.3882 25.477 44.0494 25.6024 44.0494 25.6024C41.5929 26.501 35.0494 28.2144 32.72 33.522C32.4235 34.1907 32 35.6534 32 37.346C32 38.8087 32.3176 40.4386 33.2706 41.9222C34.9224 44.4715 37.7176 46.0805 42.2071 45.9969C47.0776 45.9133 51.8847 42.6326 52.7318 42.0267C53.5577 42.7998 55.7388 44.8267 56.8824 45.37V45.37ZM56.8824 15.6977C56.3106 19.2709 51.6094 22.886 50.4659 23.3666C50.2541 21.3605 50.36 18.1844 52.0541 15.5933C53.1765 13.8798 54.68 13.1275 55.8871 13.5455C56.8612 13.8798 56.9671 14.7574 56.8824 15.6977ZM50.36 39.6027C49.7035 39.9998 47.12 41.2953 44.7059 41.5252C42.4612 41.7341 38.7341 40.8774 38.7553 36.4474C38.7553 32.6653 42.9271 29.8861 45.1929 28.9249C46.1035 32.5817 48.1576 36.7191 50.36 39.6027V39.6027Z" fill="#131F3F"/>
<path d="M89.8844 4.03856C96.3515 2.45622 101.678 7.6041 102.155 7.96277L104 1.99207C101.45 1.21144 82.8992 -5.18121 69.7786 10.0515C61.7155 19.4189 59.7464 38.618 69.9652 43.7659C80.9094 49.2724 92.9936 42.9219 93.8849 42.4789L98.8803 26.2757C99.4192 24.3136 100.642 23.0477 102.798 22.2249H85.428C87.9568 23.3009 87.7702 25.2419 87.5837 26.0436L82.5883 42.2468C81.925 42.3734 67.9546 45.9178 75.7689 21.0434C77.4893 15.7057 82.1945 5.91627 89.8844 4.03856Z" fill="#131F3F"/>
</svg>
