<svg width="76" height="65" viewBox="0 0 76 65" fill="none" xmlns="http://www.w3.org/2000/svg">
<path fill-rule="evenodd" clip-rule="evenodd" d="M68.1277 0.444685C69.0621 0.0509402 70.0849 -0.0848597 71.0896 0.0514182C72.0942 0.187696 73.044 0.591071 73.8401 1.21956C74.6362 1.84804 75.2495 2.67867 75.6161 3.62497C75.9827 4.57127 76.0893 5.59866 75.9248 6.6002L67.3487 58.6798C66.5168 63.7034 61.0112 66.5843 56.4094 64.0819C52.56 61.9885 46.8426 58.7631 41.7 55.3976C39.1287 53.713 31.2522 48.3184 32.2202 44.4797C33.0521 41.1975 46.2868 28.8638 53.8494 21.5309C56.8178 18.65 55.464 16.9881 51.9588 19.6381C43.2504 26.2176 29.2784 36.2231 24.6576 39.0397C20.5813 41.5231 18.4562 41.9471 15.9152 41.5231C11.2793 40.7508 6.9799 39.5545 3.47083 38.097C-1.27095 36.1285 -1.04029 29.602 3.46705 27.7016L68.1277 0.444685Z" fill="#F3F5FF"/>
</svg>
