<svg width="250" height="35" viewBox="0 0 250 35" fill="none" xmlns="http://www.w3.org/2000/svg">
<path d="M0 32.8612V33.95H30.237V31.2239H5.27273L30.0698 1.72573L30.0617 0.433874H1.16721V3.16003H24.8084L0 32.8612Z" fill="#131F3F"/>
<path d="M58.8685 0.193175L43.1071 33.95H46.4854L51.7922 22.5608H67.763L73.0698 33.95H76.448L60.6867 0.193175H58.8685ZM66.4984 19.8346H53.0552L59.7532 5.37205L66.4984 19.8346Z" fill="#131F3F"/>
<path d="M95.2419 31.2239V0.433874H92.0227V33.95H111.802V31.2239H95.2419Z" fill="#131F3F"/>
<path d="M143.974 0C133.881 0 125.976 7.55137 125.976 17.192C125.976 26.8326 133.881 34.384 143.974 34.384C154.122 34.384 162.07 26.8326 162.07 17.192C162.071 7.55137 154.122 0 143.974 0ZM144.073 31.4171C135.841 31.4171 129.391 25.1691 129.391 17.192C129.391 9.2149 135.841 2.96684 144.073 2.96684C152.25 2.96684 158.656 9.2149 158.656 17.192C158.656 25.1691 152.25 31.4171 144.073 31.4171Z" fill="#131F3F"/>
<path d="M194.388 17.3017C198.377 15.6889 200.398 12.9759 200.398 9.22964C200.398 3.7233 196.131 0.435536 188.984 0.435536H180.076V33.9501H183.295V18.1695H187.51C191.458 18.1695 192.674 18.7393 196.588 24.7876L202.526 33.9517H206.308L198.429 22.0942C196.945 19.905 195.747 18.2333 194.388 17.3017ZM183.294 3.16005H188.442C193.948 3.16005 196.98 5.33279 196.98 9.27712C196.98 13.2526 193.984 15.4417 188.541 15.4417H183.295V3.16005H183.294Z" fill="#131F3F"/>
<path d="M234.239 0.193175H232.419L216.657 33.95H220.036L225.343 22.5608H241.313L246.62 33.95H250L234.239 0.193175ZM240.05 19.8346H226.607L233.305 5.37205L240.05 19.8346Z" fill="#131F3F"/>
</svg>
